<svg xmlns="http://www.w3.org/2000/svg" width="67.598" height="62.989" viewBox="0 0 67.598 62.989">
    <g id="Group_13109" data-name="Group 13109" transform="translate(-997 -1385.483)">
        <path id="Path_130982" data-name="Path 130982"
            d="M34.578,17.557c-.039-5.12-3.614-9.269-8.049-9.365a9.452,9.452,0,0,0-8.1,4.885,4.03,4.03,0,0,0-5.591,3.171,5.8,5.8,0,0,0,1.135,11.5h19.59c2.474,0,4.481-2.311,4.481-5.161A5.062,5.062,0,0,0,34.578,17.557Z"
            transform="translate(1015.965 1378.291)" fill="#7ce8dd" stroke="#11807f"
            stroke-width="2" />
        <g id="book" transform="translate(997 1404.947)">
            <g id="Group_13098" data-name="Group 13098" transform="translate(3.887 1.294)">
                <path id="Path_130998" data-name="Path 130998"
                    d="M55.6,194.033l22.674-2.53a4.811,4.811,0,0,0,4.8-4.8V175.679a4.811,4.811,0,0,0-4.8-4.8H31.969a2.53,2.53,0,1,0,0,5.059h2.382l43.661,5.251-43.661,5.251H31.969a2.53,2.53,0,1,0,0,5.059Z"
                    transform="translate(-29.439 -170.883)" fill="#fafafa" fill-rule="evenodd" />
            </g>
            <g id="Group_13099" data-name="Group 13099" transform="translate(8.798 6.353)">
                <path id="Path_130999" data-name="Path 130999"
                    d="M66.641,219.7h42.384a1.28,1.28,0,0,0,1.277-1.277v-7.948a1.281,1.281,0,0,0-1.277-1.277H66.641a11.663,11.663,0,0,1,0,10.5Z"
                    transform="translate(-66.641 -209.202)" fill="#f9f7f8" fill-rule="evenodd" />
            </g>
            <g id="Group_13103" data-name="Group 13103" transform="translate(0.99 21.914)">
                <path id="Path_131003" data-name="Path 131003"
                    d="M12.926,327.065h-.634a4.807,4.807,0,0,0-4.792,4.8v11.028a4.81,4.81,0,0,0,4.792,4.8h58.3a2.53,2.53,0,1,0,0-5.059H68.206l-55.647-4.788,55.647-5.714h2.382a2.53,2.53,0,0,0,0-5.059H12.926Z"
                    transform="translate(-7.5 -327.065)" fill="#7ce8dd" fill-rule="evenodd" />
            </g>
            <g id="Group_13106" data-name="Group 13106" transform="translate(6.049 26.973)">
                <path id="Path_131006" data-name="Path 131006"
                    d="M100.217,370.635a12.019,12.019,0,0,1,1.249-5.251H47.1a1.28,1.28,0,0,0-1.277,1.277v7.948a1.281,1.281,0,0,0,1.277,1.277h54.37A12.153,12.153,0,0,1,100.217,370.635Z"
                    transform="translate(-45.819 -365.384)" fill="#f9f7f8" fill-rule="evenodd" />
            </g>
            <g id="Group_13108" data-name="Group 13108" transform="translate(18.121 11.604)">
                <path id="Path_131008" data-name="Path 131008"
                    d="M137.255,268.62c-.048.607.187.8.7.335l3.451-3.292,3.451,3.292c.511.467.75.271.7-.335q.006-9.821.008-19.647h-8.311Q137.251,258.794,137.255,268.62Z"
                    transform="translate(-137.249 -248.973)" fill="#20c5ba" fill-rule="evenodd" />
            </g>
            <path id="Path_131010" data-name="Path 131010"
                d="M64.078,75.763h-1.74a10.48,10.48,0,0,1,0-8.521h1.741a3.52,3.52,0,0,0,0-7.04h-7A5.76,5.76,0,0,0,58.509,56.4V45.368a5.793,5.793,0,0,0-5.786-5.786H49.876c.242-.482-43.129-.319-42.692,0H6.416a3.52,3.52,0,0,0,0,7.04H8.158a10.479,10.479,0,0,1,0,8.521H6.416a3.517,3.517,0,0,0-2.894,5.52A5.8,5.8,0,0,0,0,65.988V77.016A5.791,5.791,0,0,0,5.782,82.8h58.3a3.52,3.52,0,0,0,0-7.04Zm0-13.581a1.539,1.539,0,0,1,0,3.079H46.207a.99.99,0,1,0,0,1.98H60.213a12.844,12.844,0,0,0-.713,3.27,11.135,11.135,0,0,0,.715,5.251H7.326a.29.29,0,0,1-.286-.287V67.528a.29.29,0,0,1,.286-.286h9.81v3.252a1.4,1.4,0,0,0,.7,1.5,1.42,1.42,0,0,0,1.652-.4l.015-.014,2.768-2.64,2.768,2.64.015.014a1.687,1.687,0,0,0,1.135.518,1.179,1.179,0,0,0,.521-.121,1.4,1.4,0,0,0,.7-1.5V67.242H41.332a.99.99,0,0,0,0-1.98H27.418V62.182H64.078ZM11,49.892a12.861,12.861,0,0,0-.717-3.27h40.9a.29.29,0,0,1,.287.287v7.948a.29.29,0,0,1-.287.286H27.422v-3.27h6.93a.99.99,0,1,0,0-1.98H11Zm6.138,5.251H10.276a12.948,12.948,0,0,0,.718-3.27h6.138Zm8.31-3.27-.007,17.345L22.96,66.855a.99.99,0,0,0-1.367,0l-2.476,2.362,0-17.345h6.33ZM46.674,39.582h0ZM6.416,44.641a1.539,1.539,0,0,1,0-3.079H52.723a3.81,3.81,0,0,1,3.806,3.806V56.4A3.81,3.81,0,0,1,52.723,60.2H27.42V57.123H51.183a2.27,2.27,0,0,0,2.267-2.267V46.908a2.27,2.27,0,0,0-2.267-2.267H6.416Zm0,12.482H17.134V60.2H6.417a1.539,1.539,0,0,1,0-3.079Zm57.662,23.7H5.782a3.808,3.808,0,0,1-3.8-3.806V65.988a3.808,3.808,0,0,1,3.8-3.806H17.135v3.079H7.326a2.269,2.269,0,0,0-2.267,2.267v7.948a2.27,2.27,0,0,0,2.267,2.267H64.078a1.54,1.54,0,0,1,0,3.079Z"
                transform="translate(0 -39.278)" fill="#11807f" />
        </g>
    </g>
</svg>