<svg xmlns="http://www.w3.org/2000/svg" width="60.011" height="60" viewBox="0 0 60.011 60">
    <g id="Group_13115" data-name="Group 13115" transform="translate(-0.473)">
        <path id="Path_131015" data-name="Path 131015"
            d="M38.91,24.155A10.971,10.971,0,0,0,40.918,15.9,10.757,10.757,0,0,0,28.8,6.754m10.107,17.4a10.34,10.34,0,0,1-6.755,4.091m6.755-4.091c-.137-2.025-2.954-2.926-5.028-3.227a1.479,1.479,0,0,1-1.275-1.2,1.728,1.728,0,0,1,.358-1.24c1.611-2.29.028-5.956-3.185-5.464s-3.606,4.462-1.372,6.162a1.739,1.739,0,0,1,.719,1.076,1.468,1.468,0,0,1-.849,1.526c-1.885.908-4.3,2.61-3.81,4.581m7.686,1.879L53.9,24.915l2.475-.379A3.629,3.629,0,0,0,59.435,20.4L57.2,6.071a3.653,3.653,0,0,0-4.173-3.028l-2.475.379L28.8,6.754m3.352,21.492L10.4,31.578l-2.475.379a3.653,3.653,0,0,1-4.173-3.028L1.522,14.6a3.629,3.629,0,0,1,3.056-4.136l2.475-.379L28.8,6.754m3.352,21.492a10.4,10.4,0,0,1-7.686-1.879M28.8,6.754A10.687,10.687,0,0,0,20.039,19.1a11.031,11.031,0,0,0,4.429,7.268M22.047,44.092a11.113,11.113,0,0,1,1.181-14.478M22.047,44.092A10.339,10.339,0,0,0,28.8,48.184m-6.755-4.091c.137-2.025,2.954-2.925,5.028-3.227a1.478,1.478,0,0,0,1.274-1.2,1.728,1.728,0,0,0-.358-1.241c-1.611-2.289-.028-5.956,3.185-5.464s3.606,4.461,1.372,6.162a1.739,1.739,0,0,0-.719,1.075,1.469,1.469,0,0,0,.849,1.526c1.885.908,4.3,2.61,3.81,4.581M28.8,48.184,7.053,44.852l-2.475-.379a3.629,3.629,0,0,1-3.056-4.136L3.5,27.636M28.8,48.184l21.749,3.332,2.475.379A3.653,3.653,0,0,0,57.2,48.866l2.235-14.328A3.629,3.629,0,0,0,56.379,30.4L53.9,30.023,37.728,27.545M28.8,48.184A10.4,10.4,0,0,0,36.489,46.3m0,0a11.031,11.031,0,0,0,4.429-7.268A10.817,10.817,0,0,0,35.288,27.7"
            transform="translate(0 3)" fill="none" stroke="#11807f" stroke-linecap="round"
            stroke-linejoin="round" stroke-width="2" />
        <path id="Path_131016" data-name="Path 131016" d="M17,28a6,6,0,1,1-6-6A6,6,0,0,1,17,28Z"
            transform="translate(3.522 22)" fill="#7ce8dd" />
        <path id="Path_131017" data-name="Path 131017"
            d="M31,6a6,6,0,1,1-1.388-3.839A6,6,0,0,1,31,6Z" transform="translate(17.522)"
            fill="#20c5ba" />
        <path id="Path_131018" data-name="Path 131018" d="M15,30a6,6,0,1,1-6-6A6,6,0,0,1,15,30Z"
            transform="translate(1.522 24)" fill="#20c5ba" />
        <path id="Path_131019" data-name="Path 131019"
            d="M34,7a6.005,6.005,0,1,1-6-6A6,6,0,0,1,34,7Z" transform="translate(20.522 1)"
            fill="#7ce8dd" />
    </g>
</svg>