<svg id="Group_13091" data-name="Group 13091" xmlns="http://www.w3.org/2000/svg" width="64"
height="64" viewBox="0 0 64 64">
<path id="Path_130972" data-name="Path 130972"
    d="M24.067,7.857A17.067,17.067,0,1,0,41.133,24.924,17.067,17.067,0,0,0,24.067,7.857Zm0,7.771A8.533,8.533,0,1,0,32.6,24.162,8.533,8.533,0,0,0,24.067,15.628Z"
    transform="translate(7.933 8.905)" fill="#7ce8dd" fill-rule="evenodd" />
<path id="Path_130973" data-name="Path 130973"
    d="M30.933,10.819a1.067,1.067,0,1,0,2.133,0Zm2.133-9.752a1.067,1.067,0,1,0-2.133,0ZM20.379,13.277a1.067,1.067,0,0,0,1.908-.954ZM18.021,3.79a1.067,1.067,0,0,0-1.908.954Zm23.692,8.533a1.067,1.067,0,1,0,1.908.954Zm6.175-7.579a1.067,1.067,0,1,0-1.908-.954Zm4.692,11.569a1.067,1.067,0,0,0,1.509,1.508Zm6.842-3.825a1.067,1.067,0,1,0-1.509-1.508ZM9.912,17.821a1.067,1.067,0,0,0,1.508-1.508ZM6.088,10.979a1.067,1.067,0,1,0-1.508,1.508ZM1.984,33.6l-.974-.435h0Zm.1,4.425-.932.519h0ZM62.016,33.6l-.974.435h0Zm-.1,4.425.932.519ZM1.067,61.867a1.067,1.067,0,1,0,0,2.133ZM62.933,64a1.067,1.067,0,1,0,0-2.133ZM33.067,10.819V1.067H30.933v9.752Zm-10.779,1.5L18.021,3.79l-1.908.954,4.267,8.533Zm21.333.954,4.267-8.533L45.979,3.79l-4.267,8.533Zm10.467,4.544,5.333-5.333-1.509-1.508-5.333,5.333ZM11.421,16.312,6.088,10.979,4.579,12.488l5.333,5.333ZM2.958,34.036A25.426,25.426,0,0,1,11.94,22.924c4.473-3.019,10.822-5.1,20.06-5.1V15.7c-9.564,0-16.353,2.154-21.253,5.46A27.554,27.554,0,0,0,1.01,33.167Zm-1.8,4.51C5.779,46.841,17.222,51.962,32,51.962V49.829c-14.43,0-24.9-5.006-28.983-12.322ZM62.99,33.167a27.553,27.553,0,0,0-9.737-12.011C48.353,17.849,41.564,15.7,32,15.7v2.133c9.238,0,15.587,2.077,20.06,5.1a25.427,25.427,0,0,1,8.982,11.112Zm-2.007,4.34C56.9,44.823,46.431,49.829,32,49.829v2.133c14.778,0,26.221-5.121,30.846-13.416Zm.059-3.471a3.878,3.878,0,0,1-.059,3.471l1.863,1.039a6.009,6.009,0,0,0,.144-5.379ZM1.01,33.167a6.008,6.008,0,0,0,.144,5.379l1.863-1.039a3.878,3.878,0,0,1-.059-3.471ZM1.067,64H62.933V61.867H1.067ZM32,40.533a7.467,7.467,0,0,1-7.467-7.467H22.4a9.6,9.6,0,0,0,9.6,9.6Zm7.467-7.467A7.467,7.467,0,0,1,32,40.533v2.133a9.6,9.6,0,0,0,9.6-9.6ZM32,25.6a7.467,7.467,0,0,1,7.467,7.467H41.6a9.6,9.6,0,0,0-9.6-9.6Zm0-2.133a9.6,9.6,0,0,0-9.6,9.6h2.133A7.467,7.467,0,0,1,32,25.6Z"
    fill="#11807f" />
</svg>