<svg xmlns="http://www.w3.org/2000/svg" width="14.312" height="14.312"
viewBox="0 0 14.312 14.312">
<g id="linkedin" transform="translate(0.5 0.5)">
    <g id="Group_2072" data-name="Group 2072" transform="translate(0 0)">
        <path id="Path_924" data-name="Path 924"
            d="M9.142,19.522H6.086V10.692H9.142ZM7.6,9.334A1.562,1.562,0,1,1,9.159,7.772,1.58,1.58,0,0,1,7.6,9.334Zm11.75,10.188H16.783V15.243c0-1.036-.136-2.36-1.545-2.36-1.443,0-1.681,1.121-1.681,2.292v4.347H11.01V10.692h2.377v1.189h.068a2.788,2.788,0,0,1,2.6-1.206c2.8,0,3.294,1.613,3.294,4.007Z"
            transform="translate(-6.035 -6.21)" fill="none" stroke="#9db0cb"
            stroke-width="1" />
    </g>
</g>
</svg>