<svg xmlns="http://www.w3.org/2000/svg" width="49.63" height="63.426" viewBox="0 0 49.63 63.426">
    <g id="Group_13086" data-name="Group 13086" transform="translate(0)">
        <g id="Group_2479" data-name="Group 2479" transform="translate(0 0)">
            <path id="Path_7038" data-name="Path 7038"
                d="M628.455,412.881h-22.7c-1.65,0-2.011-.359-2.011-1.995q0-15.748,0-31.5c0-1.113,0-1.117,1.11-1.117q6.307,0,12.613,0c1.091,0,1.1,0,1.1,1.068q0,8.563,0,17.128c0,1.227.067,1.3,1.279,1.3q8.626,0,17.252,0c1.255,0,1.31-.057,1.31-1.348q0-8.524,0-17.047c0-1.091,0-1.1,1.066-1.1,4.259,0,8.518.018,12.776-.017.795-.006,1,.252,1,1.021q-.034,15.87-.016,31.74c0,1.455-.42,1.863-1.908,1.863Q639.889,412.883,628.455,412.881Z"
                transform="translate(-603.737 -361.308)" fill="#9db0cb" />
            <path id="Path_7039" data-name="Path 7039"
                d="M611.385,368.169c-1.951,0-3.9.008-5.854,0-1.023-.005-1.469-.4-1.474-1.406q-.031-6,0-12c.006-1,.519-1.476,1.546-1.481q5.813-.024,11.626,0a1.308,1.308,0,0,1,1.5,1.351,6.068,6.068,0,0,1,.032.729q0,5.433,0,10.868c0,1.653-.306,1.949-1.923,1.95Q614.108,368.171,611.385,368.169Z"
                transform="translate(-603.833 -353.263)" fill="#9db0cb" />
            <path id="Path_7040" data-name="Path 7040"
                d="M669.762,360.854c0,1.893.009,3.784,0,5.677-.008,1.265-.388,1.635-1.659,1.636q-5.691.007-11.382,0c-1.267,0-1.651-.348-1.658-1.637q-.031-5.758,0-11.515c.007-1.329.457-1.745,1.78-1.747q5.569-.011,11.138,0c1.345,0,1.777.452,1.783,1.828C669.768,357.015,669.763,358.935,669.762,360.854Z"
                transform="translate(-620.16 -353.263)" fill="#9db0cb" />
            <path id="Path_7041" data-name="Path 7041"
                d="M644.238,360.8c0,1.947.006,3.895,0,5.842-.005,1.171-.339,1.517-1.492,1.52q-5.816.012-11.632,0c-1.154,0-1.494-.349-1.5-1.515q-.01-5.883,0-11.765c0-1.2.411-1.611,1.614-1.615q5.694-.014,11.388,0c1.206,0,1.613.416,1.618,1.611C644.245,356.855,644.238,358.829,644.238,360.8Z"
                transform="translate(-612.018 -353.262)" fill="#9db0cb" />
            <path id="Path_7042" data-name="Path 7042"
                d="M636.071,379.092a5.755,5.755,0,0,1,1.092.669q3.494,3.513,6.946,7.068a1.377,1.377,0,0,1,.01,2.147q-3.425,3.524-6.883,7.016a1.351,1.351,0,0,1-2.244-.024q-3.395-3.439-6.77-6.9a1.432,1.432,0,0,1,0-2.327q3.347-3.43,6.717-6.837A8.5,8.5,0,0,1,636.071,379.092Z"
                transform="translate(-611.383 -361.577)" fill="#9db0cb" />
            <path id="Path_7043" data-name="Path 7043"
                d="M636.108,436.829c0-1.38.028-2.761-.01-4.14-.023-.848.54-.707,1.041-.711s1.046-.114,1.031.724c-.037,2.029-.015,4.059-.014,6.088,0,.991.134,1.129,1.125,1.134q1.831.01,3.662,0c.9-.006,1.077-.193,1.084-1.113.008-.812.022-1.625,0-2.436s.536-.661,1.006-.663,1.023-.121.994.673c-.031.865,0,1.732-.012,2.6-.01.637.266.951.924.947,1.329-.009,2.658,0,3.987.007.684.005.981-.311.957-1-.028-.865.008-1.732-.014-2.6-.02-.747.507-.634.952-.626s1.044-.166,1.031.637c-.014.866.009,1.732-.006,2.6-.012.68.292.97.978.989,1.966.057,1.966.071,1.962-1.842,0-.569.028-1.138,0-1.7-.035-.7.419-.717.908-.68.469.035,1.118-.215,1.112.644-.007.839.011,1.679-.034,2.515-.038.719.241,1.043.975,1.067,1.96.064,2.011.025,1.961-1.92-.01-.378.022-.757.036-1.135.044-1.162.4-1.444,1.558-1.139a.734.734,0,0,1,.405.554c.033,1.623.022,3.247.022,4.871a.753.753,0,0,1-.876.832c-1.639-.066-3.276-.182-4.915-.235-.381-.012-.771.237-1.152.224-1.26-.046-2.517-.189-3.778-.228-.466-.014-.937.217-1.407.229-1.383.033-2.769.06-4.15,0-1.649-.073-3.293-.032-4.939,0-1.681.037-3.364.012-5.046.007-1.218,0-1.35-.144-1.347-1.356q0-1.908,0-3.816Z"
                transform="translate(-614.094 -378.6)" fill="#9db0cb" />
            <path id="Path_7044" data-name="Path 7044"
                d="M603.754,436.851c0-1.353.048-2.708-.016-4.056-.044-.92.517-.8,1.1-.831.638-.03,1.009.073.989.861-.05,2-.021,4-.02,6,0,.934.156,1.1,1.08,1.1,1.166,0,2.331-.012,3.5-.006.677,0,.993-.3.978-.989-.02-.865.008-1.731-.008-2.6-.014-.816.586-.605,1.033-.627s.959-.092.941.64c-.022.892,0,1.785-.006,2.677-.006.6.268.9.88.9,2.135,0,2.115.132,2.068-1.9-.009-.378,0-.757,0-1.136,0-1.126.544-1.53,1.6-1.139a.807.807,0,0,1,.343.617c.041.81.014,1.622.018,2.434,0,.934.17,1.106,1.068,1.125,1.881.04,1.88.04,1.879-1.846,0-.568.027-1.138,0-1.7-.035-.638.35-.723.831-.667.449.052,1.133-.272,1.138.6.011,1.623,0,3.245.007,4.869,0,.488-.242.809-.723.795-1.666-.048-3.331-.148-5-.2-.247-.008-.5.183-.747.186-1.246.012-2.491-.014-3.737-.013-.575,0-1.15.045-1.726.047-2.087.006-4.175.012-6.263,0-1.054-.006-1.2-.17-1.2-1.248C603.751,439.447,603.754,438.149,603.754,436.851Z"
                transform="translate(-603.735 -378.596)" fill="#9db0cb" />
            <path id="Path_7045" data-name="Path 7045"
                d="M647.5,432.028c1.917.022,1.645-.178,1.638,1.633-.006,1.718.372,1.694-1.691,1.7-1.788,0-1.529.094-1.557-1.579,0-.054,0-.108,0-.162C645.92,431.845,645.654,432.048,647.5,432.028Z"
                transform="translate(-617.229 -378.619)" fill="#9db0cb" />
            <path id="Path_7046" data-name="Path 7046"
                d="M664.769,433.632c.033-1.779-.241-1.6,1.592-1.6,1.9,0,1.666-.162,1.658,1.621-.008,1.745.353,1.7-1.678,1.7C664.515,435.354,664.8,435.471,664.769,433.632Z"
                transform="translate(-623.272 -378.618)" fill="#9db0cb" />
            <path id="Path_7047" data-name="Path 7047"
                d="M675.19,433.7c-.043,1.662.334,1.659-1.654,1.655-1.834,0-1.6.1-1.592-1.616.007-1.943-.28-1.7,1.717-1.708C675.453,432.023,675.16,431.92,675.19,433.7Z"
                transform="translate(-625.565 -378.618)" fill="#9db0cb" />
            <path id="Path_7048" data-name="Path 7048"
                d="M660.7,433.706c-.035,1.745.257,1.653-1.673,1.648-1.9,0-1.588-.022-1.589-1.578,0-1.971-.265-1.739,1.708-1.744C660.908,432.027,660.675,431.884,660.7,433.706Z"
                transform="translate(-620.92 -378.618)" fill="#9db0cb" />
        </g>
    </g>
</svg>