<svg id="Group_13082" data-name="Group 13082" xmlns="http://www.w3.org/2000/svg" width="54.965"
                        height="65.692" viewBox="0 0 54.965 65.692">
                        <g id="Group_2481" data-name="Group 2481" transform="translate(0 0)">
                            <path id="Path_7049" data-name="Path 7049"
                                d="M125,132.05a15.15,15.15,0,0,1,10.567,4.269c1.668,1.584,3.248,3.26,4.907,4.854.544.523.517.863-.013,1.368-1.337,1.275-2.657,2.573-3.921,3.919-.569.606-.907.64-1.516.019q-4.759-4.842-9.606-9.6a7.6,7.6,0,0,0-9.936-.86c-.761.544-.881.9-.145,1.615,3,2.918,5.933,5.909,8.92,8.843.541.532.627.856.037,1.434q-4.728,4.633-9.377,9.346c-.512.517-.829.546-1.357.012q-4.694-4.748-9.453-9.43c-.5-.493-.472-.79.013-1.269,3.543-3.5,7.009-7.075,10.6-10.52A14.64,14.64,0,0,1,125,132.05Z"
                                transform="translate(-85.9 -102.764)" fill="#9db0cb" />
                            <path id="Path_7050" data-name="Path 7050"
                                d="M41.173,75.722a15.07,15.07,0,0,1-11.139-4.478c-1.469-1.465-2.9-2.974-4.424-4.376-.767-.7-.682-1.132.034-1.782,1.172-1.064,2.256-2.223,3.379-3.341,1.02-1.015,1.021-1.015,2.084.044,3.1,3.089,6.18,6.2,9.3,9.263a7.646,7.646,0,0,0,9.946.814c.785-.568.934-.964.155-1.72-2.978-2.889-5.878-5.857-8.842-8.761-.579-.567-.672-.9-.038-1.521q4.656-4.545,9.213-9.19c.624-.636.953-.534,1.52.041q4.527,4.593,9.137,9.106c.664.647.58,1-.034,1.6-3.312,3.249-6.584,6.538-9.868,9.816A14.639,14.639,0,0,1,41.173,75.722Z"
                                transform="translate(-25.069 -39.454)" fill="#9db0cb" />
                            <path id="Path_7051" data-name="Path 7051"
                                d="M132.32,247.187c.2.174.376.31.532.466,1.387,1.379,2.755,2.777,4.164,4.134.488.47.519.8.015,1.282q-2.115,2.033-4.153,4.144c-.45.466-.74.449-1.182-.007-1.387-1.431-2.814-2.824-4.226-4.231-.268-.266-.593-.5-.168-.915,1.554-1.531,3.093-3.077,4.641-4.614A2.621,2.621,0,0,1,132.32,247.187Z"
                                transform="translate(-103.961 -191.863)" fill="#9db0cb" />
                            <path id="Path_7052" data-name="Path 7052"
                                d="M124.9,2.547a5.515,5.515,0,0,1,.483.39c1.366,1.354,2.713,2.727,4.1,4.065.461.446.447.761-.008,1.2q-2.074,2.006-4.085,4.075c-.444.458-.747.466-1.195,0-1.338-1.381-2.709-2.731-4.081-4.079-.371-.364-.561-.663-.1-1.117,1.432-1.394,2.836-2.817,4.254-4.226A.771.771,0,0,1,124.9,2.547Z"
                                transform="translate(-98.275 -2.545)" fill="#9db0cb" />
                        </g>
                    </svg>