<svg id="Group_13084" data-name="Group 13084" xmlns="http://www.w3.org/2000/svg" width="49.313"
                        height="64.826" viewBox="0 0 49.313 64.826">
                        <path id="Path_7056" data-name="Path 7056"
                            d="M452.669,152.024c6.468-.048,12.939-.007,19.408-.021,3.5.016,7-.029,10.494.022-.058.349-.127.694-.2,1.04q-14.759.027-29.519,0c-.072-.345-.135-.691-.185-1.04m.286,1.6c.694-.042,1.392-.027,2.087-.026q12.645,0,25.29,0c.649,0,1.3-.009,1.947.021-.5,3.058-.967,6.12-1.448,9.181a2.263,2.263,0,0,1-1.984-2.095,4.721,4.721,0,0,0,.836-1.291c.132-.512.164-1.044.284-1.559.136-.6.47-1.125.632-1.716a1.751,1.751,0,0,0-.573.317,10.639,10.639,0,0,0-1.545,1.609,14.776,14.776,0,0,0-2.154-2.039c-.043.512.337.918.472,1.388.294.71.2,1.514.512,2.215a12.324,12.324,0,0,0,.71,1.072,2.348,2.348,0,0,1-1.521,2.04,2.521,2.521,0,0,1-2.426-.525c-.459-.4-.459-1.119-.983-1.458a2.234,2.234,0,0,0,1.164,2.2,2.787,2.787,0,0,0,3.841-.979c.36-.464.229-1.053.261-1.594a1.585,1.585,0,0,1,.31.311,1.706,1.706,0,0,0,.076,1.178,2.977,2.977,0,0,0,1.983,1.485c-.037.256-.072.512-.109.767-6.734.038-13.469.005-20.2.017-1.929-.018-3.858.038-5.785-.029-.041-.264-.08-.527-.118-.791a3.283,3.283,0,0,0,1.683-1.363,1.6,1.6,0,0,0,.1-1.341c.114-.068.228-.136.343-.2a2.385,2.385,0,0,0,.159,1.393,2.651,2.651,0,0,0,2.44,1.532,2.538,2.538,0,0,0,2.671-2.538l-.337.121A2.5,2.5,0,0,1,460,162.755a2.354,2.354,0,0,1-3.083-2.2,2.108,2.108,0,0,0,.761-.91c.3-.673.224-1.439.477-2.126.159-.5.439-.942.573-1.447a1.754,1.754,0,0,0-.537.306,21.6,21.6,0,0,0-1.692,1.7,7.43,7.43,0,0,0-2.068-1.936c.109.6.432,1.124.583,1.708.148.546.161,1.12.321,1.662a5.45,5.45,0,0,0,.806,1.2,2.46,2.46,0,0,1-1.713,2.1c-.494-3.058-1.013-6.114-1.469-9.177m3.389,1.035a8.783,8.783,0,0,0-.035,1.629,4.51,4.51,0,0,0-.5-1.112l-.445-.029a2.437,2.437,0,0,0,.826,1.535c.139-.069.279-.137.419-.205a6.391,6.391,0,0,0,.238-1.512c-.005-.272-.321-.234-.506-.306m5.349.292c.013.533.152,1.059.137,1.6l.324.01c-.016-.538.1-1.068.113-1.6.007-.343-.554-.337-.574,0m5.531-.255a3.679,3.679,0,0,0,.132,1.781q.218.09.436.184a2.23,2.23,0,0,0,.828-1.494l-.489-.019c-.168.417-.316.842-.481,1.26.01-.557.067-1.112.055-1.67-.161-.01-.322-.025-.482-.042m5.527-.022c-.2.614.1,1.236.087,1.858.216-.008.5.163.662-.047a3.011,3.011,0,0,0,.7-1.261c-.118-.029-.354-.089-.471-.119a8.515,8.515,0,0,0-.569,1.319,12.1,12.1,0,0,1,.1-1.461c-.028-.267-.32-.229-.512-.289m5.405.072a7.1,7.1,0,0,0,.219,1.738l.421.229a3.645,3.645,0,0,0,.888-1.469l-.427-.169a5.891,5.891,0,0,0-.583,1.235,12.27,12.27,0,0,0-.024-1.63l-.494.065m-21.351,1.878a1.938,1.938,0,0,0,.921-1.436l-.485-.061a3.509,3.509,0,0,0-.436,1.5m3.965-1.409a2.285,2.285,0,0,0,.995,1.455,3.575,3.575,0,0,0-.523-1.562l-.472.107m1.846.086a4.572,4.572,0,0,0-.411,1.369,2.195,2.195,0,0,0,1-1.5c-.189.021-.5-.118-.587.128m3.644-.109a2.039,2.039,0,0,0,.911,1.427,3.026,3.026,0,0,0-.434-1.494l-.477.067m5.509-.025c.124.55.375,1.28.985,1.427a4.672,4.672,0,0,0-.4-1.285c-.09-.238-.4-.11-.59-.142m5.481.018a2.053,2.053,0,0,0,.93,1.438,3.187,3.187,0,0,0-.435-1.5l-.5.061m-22.437.229c-.089.149-.178.3-.269.447A5.044,5.044,0,0,0,456,157.035a3.468,3.468,0,0,0-1.181-1.619m3.172.094a4.89,4.89,0,0,0-.88,1.522,5.719,5.719,0,0,0,1.317-1.091c.009-.148.012-.3.009-.444l-.446.013m2.068-.017a1.474,1.474,0,0,0,.167.692l-.4,0a14.076,14.076,0,0,1,.66,1.687c.111.519.128,1.055.29,1.563a3.291,3.291,0,0,0,.807,1.218,1.8,1.8,0,0,1,.78-.008,3.054,3.054,0,0,0,.71-.855,8.556,8.556,0,0,0,.43-1.9c.14-.606.465-1.146.639-1.741a7.682,7.682,0,0,0-2.149,1.921c-.529-.657-1.227-1.159-1.726-1.84a9.354,9.354,0,0,1,1.022.762c0-.077.006-.231.008-.307a5.208,5.208,0,0,0-.81-1.146c-.143-.02-.284-.033-.427-.039m3.415.013a5.61,5.61,0,0,0-.9,1.423,3.108,3.108,0,0,0,1.264-.931c.151-.142.008-.345-.013-.51l-.351.017m2.094-.017c-.016.089-.048.268-.064.357.093.133.189.267.283.4-.181-.038-.36-.077-.54-.114a11.558,11.558,0,0,1,.753,1.988,6.231,6.231,0,0,0,.271,1.426c.183.465.569.817.747,1.282a2.4,2.4,0,0,1-1.52,1.919,2.523,2.523,0,0,1-2.2-.36c-.567-.412-.725-1.124-1.063-1.7a1.012,1.012,0,0,0-.126.772,2.766,2.766,0,0,0,1.866,1.81,2.885,2.885,0,0,0,2.306-.395,4.149,4.149,0,0,0,1.183-1.536,3.567,3.567,0,0,0,1.207,1.572,3,3,0,0,0,2.216.379,2.739,2.739,0,0,0,1.921-1.723,3.95,3.95,0,0,0,.016-1.106c.206.073.467.312.641.053a3.152,3.152,0,0,0,.936-2.232,8.387,8.387,0,0,1,.733-2.122c-.142.016-.282.031-.422.048.069-.156.141-.311.212-.467-.035-.059-.106-.178-.143-.237l-.305-.02a4.328,4.328,0,0,0-.891,1.432,9.5,9.5,0,0,0,1.084-.691,1.693,1.693,0,0,1-.528.634,12.515,12.515,0,0,0-1.156,1.2c-.47-.545-1.031-1-1.465-1.581.3.178.587.375.887.554a5.385,5.385,0,0,0-.915-1.526l-.459-.013a2,2,0,0,0,.214.776c-.169-.084-.339-.166-.51-.246.185.574.5,1.1.666,1.678a13.727,13.727,0,0,0,.463,2.02c.172.375.516.642.687,1.015a2.3,2.3,0,0,1-1.911,2.073,2.543,2.543,0,0,1-1.7-.3,2.605,2.605,0,0,1-1.1-1.7c-.047-.265.24-.405.374-.591a3.216,3.216,0,0,0,.663-1.868,7.927,7.927,0,0,1,.75-2.194l-.424.047c.08-.165.16-.328.238-.491-.142-.074-.274-.269-.453-.2a3.584,3.584,0,0,0-1,1.507c.385-.245.748-.52,1.114-.795,0,.052.008.157.01.208a7.248,7.248,0,0,0-1.644,1.63c-.526-.626-1.161-1.152-1.685-1.778.387.226.731.511,1.106.753a5.479,5.479,0,0,0-.912-1.53l-.417-.025m10.982,0a4.3,4.3,0,0,0,0,.45,5.921,5.921,0,0,0,1.333,1.1,5.3,5.3,0,0,0-.9-1.53l-.44-.018m2.448,1.536a5.977,5.977,0,0,0,1.432-1.16c-.09-.149-.18-.3-.266-.45a3.5,3.5,0,0,0-1.166,1.61m-23.005-.009a1.858,1.858,0,0,0,.592.707,2.791,2.791,0,0,0,.415-.559.821.821,0,0,0-.267-.43c-.288-.079-.514.149-.74.282m5.721-.328c-.043.194-.191.383-.143.587a4.685,4.685,0,0,0,.422.491c.155-.231.455-.429.451-.728-.111-.319-.449-.32-.73-.35m5.2.463.478.557c.2-.17.4-.352.586-.54-.176-.178-.292-.542-.6-.438-.227.016-.31.283-.46.421m5.753-.319c-.339.291.043.65.227.9.2-.18.4-.369.59-.561-.152-.294-.5-.652-.816-.337m5.437.061c-.279.31.117.589.295.823.2-.183.39-.374.581-.567-.181-.284-.6-.664-.875-.256m-23.295,7.848c.25-.02.5-.036.755-.04q10.942,0,21.886,0c1,.021,2-.051,2.992.05.012.093.034.278.045.371q-12.859.016-25.719,0l.042-.382m.016.71q12.8,0,25.6,0c-1.03,6.366-2.007,12.739-3.016,19.108a13.825,13.825,0,0,0,.1,7.292,5.461,5.461,0,0,0,3.134,3.416,7.124,7.124,0,0,1,3.028,2.07,2.726,2.726,0,0,1,.694,1.9,1.571,1.571,0,0,1-1.152,1.4,3.228,3.228,0,0,1-1.909-.144,5.8,5.8,0,0,0-4.719-.05,2.52,2.52,0,0,0-1.44,2.563,3.951,3.951,0,0,0,3.351,3.188c7.148.007,14.3-.008,21.446.007q0,.635,0,1.27c-2.385.073-4.772.01-7.159.031-13.861-.008-27.722.017-41.584-.012a12.538,12.538,0,0,1,.013-1.294q8.993-.006,17.984,0a11.48,11.48,0,0,0,2.055-.082,1.386,1.386,0,0,0-.4-.165,12.054,12.054,0,0,1-7.748-4.425,20.409,20.409,0,0,1-3.919-9.117c-1.481-8.983-2.878-17.975-4.36-26.957m11.239,7.381c-.008,1.168-.054,2.337-.025,3.5a14.837,14.837,0,0,1,1.681-.242c.362-.962.676-1.941,1.044-2.9a.774.774,0,0,0-.071-.9,2.268,2.268,0,0,0-1.6-.312c-.484-.009-1.074.291-1.027.848m-3,.553a.873.873,0,0,0,.018.972c.434.866.848,1.745,1.278,2.614.494-.173.954-.422,1.428-.639-.05-1.15,0-2.3-.083-3.451-.075-.508-.691-.4-1.059-.349a2.873,2.873,0,0,0-1.583.853m6.541-.808c-.325.148-.411.512-.529.814-.309.9-.7,1.781-.976,2.7.5.115.991.235,1.493.329.593-.61,1.051-1.331,1.606-1.973.266-.319.6-.7.421-1.149a1.6,1.6,0,0,0-2.014-.72m2.139,1.759c-.639.686-1.177,1.461-1.774,2.184a11.209,11.209,0,0,1,.928,1c.742-.381,1.482-.768,2.211-1.176a1.238,1.238,0,0,0,.729-1.145,2.16,2.16,0,0,0-.94-1.222,1.058,1.058,0,0,0-1.153.355m-10.41.335a2.242,2.242,0,0,0-.641,1.651c.771.729,1.625,1.366,2.385,2.107.345-.383.672-.782,1.014-1.166-.348-1.04-.928-1.981-1.376-2.978a2.474,2.474,0,0,0-1.382.387m-2.183,3.594a4.413,4.413,0,0,0,1.253.72,14.587,14.587,0,0,0,2.072.923c.168-.389.321-.785.465-1.185-.592-.558-1.237-1.055-1.84-1.6a2.059,2.059,0,0,0-.949-.582c-.866-.131-1.393,1.053-1,1.724m6.5-1.255c-.5.238-.447.9-.261,1.325a3.806,3.806,0,0,0,1.47,1.759,5.434,5.434,0,0,0,1.147-.395c-.039-.687-.36-1.328-.338-2.022a7,7,0,0,0-.058-1.006,5.311,5.311,0,0,0-1.96.339m2.453-.167a3.971,3.971,0,0,0,.444,2.829,6.514,6.514,0,0,0,1.326.013,4.368,4.368,0,0,1,.562-1.885,2.483,2.483,0,0,0-2.332-.958m-4.88,2.325c-.16.468.3.851.633,1.1a4.075,4.075,0,0,0,2.182.856,6.479,6.479,0,0,0,.578-.729,10.184,10.184,0,0,1-1.2-1.294c-.3-.447-.542-.927-.814-1.389a2.252,2.252,0,0,0-1.381,1.455m-4.319-.131a1.467,1.467,0,0,0-.544,1.159.8.8,0,0,0,.268.822,16.273,16.273,0,0,0,2.462.463c.4.091.815.15,1.224.213.01-.458.038-.913.052-1.37-.811-.393-1.642-.745-2.47-1.1a1.575,1.575,0,0,0-.993-.188m4.1.968a3.984,3.984,0,0,0-.052,2.2,1.377,1.377,0,0,0,.549.885,17.144,17.144,0,0,0,2.545-.169c-.018-.487-.024-.976-.012-1.464a5.4,5.4,0,0,1-3.03-1.448m4.2.65a1.927,1.927,0,0,0-.611,1.969,2.629,2.629,0,0,0,.759,1.2c.6.63,1.135,1.311,1.731,1.939a25.566,25.566,0,0,1,5.612,7.742,18.543,18.543,0,0,1,1.058,7.042,4.281,4.281,0,0,1,1.4-.732,5.192,5.192,0,0,1,2.221-.075,28.04,28.04,0,0,1-1.034-3.492,34.729,34.729,0,0,0-2.878-7.038c-1.514-2.383-3.423-4.5-4.8-6.968a7.782,7.782,0,0,1-.756-2.133,3.833,3.833,0,0,0-2.7.545m-8.168,1.257a1.632,1.632,0,0,0-.284,1.477c.131.42.646.4,1,.4,1.1-.046,2.2-.039,3.3-.041a11.242,11.242,0,0,1-.731-1.7,20.589,20.589,0,0,0-2.3-.243,1.81,1.81,0,0,0-.98.111m4.923,1.529c-.476.581.248,1.532.941,1.353.736-.073,1.443-.318,2.175-.423-.316-.391-.607-.8-.954-1.164a16.6,16.6,0,0,0-2.162.235m-2.9.743a4.019,4.019,0,0,0-1.558.278c-.233.071-.21.335-.174.523a1.7,1.7,0,0,0,.747.984,18.852,18.852,0,0,0,3.887-.84,11.968,11.968,0,0,1-.833-1.184c-.7-.016-1.375.192-2.068.239m4.125.885c-.2.065-.49.182-.442.447a1.025,1.025,0,0,0,1.241.966,19.08,19.08,0,0,0,2.346-.679,10.631,10.631,0,0,0-.96-1.14c-.738.084-1.457.264-2.184.407m-3.64,1.077c-.341.114-.781.116-.992.452a1.115,1.115,0,0,0,.562,1.089c.316.235.7,0,1.027-.071.942-.308,1.9-.555,2.853-.842a2.366,2.366,0,0,1-.864-1.238c-.878.128-1.718.431-2.587.609m5.2.455c-.263.089-.67.179-.658.529a.956.956,0,0,0,.664.959,4.533,4.533,0,0,0,1.1-.254,13.314,13.314,0,0,0,1.89-.569c-.363-.357-.634-.839-1.09-1.082a10.059,10.059,0,0,0-1.905.416m-3.782,1.166c-.359.11-.79.12-1.044.436a.847.847,0,0,0,.944,1.11c1.131-.311,2.262-.627,3.374-1a1.6,1.6,0,0,1-.763-1.238c-.849.188-1.675.457-2.511.691m4.623.463a.787.787,0,0,0,.155,1.225,1.906,1.906,0,0,0,1.151-.056q1.03-.319,2.068-.619a5.638,5.638,0,0,0-1.016-1.184c-.782.226-1.575.416-2.357.635m-4,1.223c-.536.084-.5.774-.232,1.107.246.366.748.273,1.11.176.985-.284,1.967-.58,2.952-.865a3.612,3.612,0,0,1-.744-1.243c-1.051.176-2.06.545-3.086.825m5.083.379a.865.865,0,0,0,.379,1.206,1.65,1.65,0,0,0,.987-.1c.706-.239,1.441-.392,2.129-.684a11.73,11.73,0,0,0-1-1.162,15.763,15.763,0,0,0-2.5.744m-4.251,1.255c-.008.337-.126.744.132,1.021.249.34.726.237,1.08.165,1.008-.278,2-.616,3.013-.869a4.167,4.167,0,0,1-.871-1.266c-1.13.274-2.238.626-3.353.95m5.324.231a1.063,1.063,0,0,0,.291,1.223,1.765,1.765,0,0,0,1.232-.112c.629-.239,1.3-.34,1.911-.634a9.788,9.788,0,0,0-.774-1.268c-.89.251-1.764.555-2.659.791m-4.171,1.312a.911.911,0,0,0,.384,1.24,2.724,2.724,0,0,0,1.288-.225c.8-.267,1.629-.426,2.406-.75a1.733,1.733,0,0,1-.518-1.349c-1.178.388-2.4.651-3.56,1.083m5.256.264c-.5.265-.246.954.119,1.222a1.649,1.649,0,0,0,1.241-.1c.54-.195,1.1-.323,1.644-.5l.117-.174a5.692,5.692,0,0,0-.588-1.253c-.837.294-1.7.493-2.533.8m-3.82,1.136c-.212.084-.491.115-.6.349a.866.866,0,0,0,.358,1,1.189,1.189,0,0,0,.913,0c.974-.3,1.954-.575,2.934-.852a1.961,1.961,0,0,1-.584-1.41c-.992.354-2.014.616-3.024.912m4.947.371c-.265.072-.645.179-.616.525a.838.838,0,0,0,1.1.911q1.059-.345,2.122-.681a4.923,4.923,0,0,0-.406-1.385c-.748.152-1.458.437-2.195.63m-4.428,1.341c-.58.145-.442,1.03-.009,1.274a1.693,1.693,0,0,0,1.118-.041c.946-.293,1.9-.562,2.85-.84a2.833,2.833,0,0,1-.575-.557,3.1,3.1,0,0,1-.155-.751c-1.089.263-2.146.633-3.229.915m4.5.579c-.37.484.055,1.388.7,1.26.767-.093,1.473-.455,2.226-.618-.068-.5-.179-.983-.282-1.472-.873.3-1.783.5-2.647.83m-3.727,1.1c-.218.1-.545.112-.583.4-.106.438.181,1.061.691,1.047a5.781,5.781,0,0,0,1.3-.306c.722-.237,1.473-.391,2.173-.693a1.9,1.9,0,0,1-.553-1.35c-1,.326-2.017.61-3.031.9m4.533.5c-.2.089-.5.154-.481.431a.832.832,0,0,0,1,.987c.613-.167,1.205-.4,1.815-.588-.05-.493-.127-.981-.21-1.468-.7.247-1.418.425-2.127.638m-4.02,1.225c-.255.093-.691.146-.668.5a.972.972,0,0,0,.579.991,2.2,2.2,0,0,0,.9-.176c.933-.3,1.888-.529,2.817-.843a1.583,1.583,0,0,1-.684-1.311c-1,.222-1.951.6-2.946.836m4.077.653c-.774.251-.235,1.546.493,1.4.611-.137,1.185-.41,1.789-.575.017-.507.021-1.013.01-1.52-.765.224-1.541.421-2.292.69m-3.111.946a6.2,6.2,0,0,0-1.468.5c.035.3-.042.665.19.911a.734.734,0,0,0,.75.272c1.154-.329,2.3-.67,3.455-1.014a2.357,2.357,0,0,1-.557-.421,3.119,3.119,0,0,1-.216-.852c-.731.154-1.435.408-2.154.6m3.155.916c-.605.26-.259,1.146.241,1.33a2.266,2.266,0,0,0,1.232-.233c.172-.076.408-.136.445-.352a12.173,12.173,0,0,1,.357-1.43c-.744.272-1.538.395-2.275.683m-4.162,1.235c-.706.289-.228,1.389.424,1.385a2.7,2.7,0,0,0,.687-.158c.944-.314,1.928-.5,2.849-.886a1.434,1.434,0,0,1-.683-1.257c-1.1.265-2.179.634-3.277.916m15.166-23.575a5.784,5.784,0,0,1,3.831-.776,3.086,3.086,0,0,1,1.358.528,2.639,2.639,0,0,0-.877.929c-.494.093-.556-.643-1-.731a2.964,2.964,0,0,0-1.7.353c-.388.2-.8.559-.734,1.039a2.141,2.141,0,0,0,1.093,1.536c.159.073.408.274.169.421a2.378,2.378,0,0,0-.962,2.313c.113.419.621.349.957.426-.016.106-.03.212-.045.319a8.8,8.8,0,0,0-.826.484,1.975,1.975,0,0,0,1.039,1.129c-.293.03-.587.055-.879.081a1.322,1.322,0,0,0,.257.855,1.636,1.636,0,0,0,1.126.494c-.212.166-.574.261-.565.585.271.619,1.059.429,1.6.481-.132.2-.262.4-.387.61a11.02,11.02,0,0,0,1.52.24c.355,2.909.537,5.835.875,8.746a17.672,17.672,0,0,0,.3,2.6,8.8,8.8,0,0,0-2.486-.576,14.57,14.57,0,0,0-2.676-.242,4.926,4.926,0,0,0,.164-2.889,4.126,4.126,0,0,0-1.853-2.326c-1.466-.917-3.332-1.2-4.534-2.526a4.375,4.375,0,0,1-1.055-3.062,13.534,13.534,0,0,1,2.415-7.056,14.063,14.063,0,0,1,3.875-3.985m5.468.213a.893.893,0,0,1,1.051.205c.688.656,1.732.978,2.1,1.925-.574-.386-1.154-.759-1.751-1.107a1.627,1.627,0,0,0-1.531-.233c-.685.4-.991,1.192-1.58,1.7a1.625,1.625,0,0,1-1.28.038,2.117,2.117,0,0,1-1.077-1.589,1.575,1.575,0,0,1,1.41-.707c.563-.013.888.519,1.215.891a11.218,11.218,0,0,0,1.441-1.12m-1.059,3.116c.016-.88.679-1.972,1.677-1.86.312-.025.456.284.624.486a1.788,1.788,0,0,1,1.641.755,2.99,2.99,0,0,0-1.544.417c-.48.3-.739.848-1.213,1.155a.918.918,0,0,1-1.185-.954m.581.456c.4.265.764-.085,1.037-.346a2.091,2.091,0,0,1-.685-.317.707.707,0,0,1-.012-.806c.233-.289.734-.173.911-.52a1.336,1.336,0,0,0-1.25,1.99m.664-1.285c-.157.338.258.621.556.643.51-.2.977-.489,1.464-.736a3.305,3.305,0,0,0-1.076-.06c-.12.263-.237.583-.58.587-.009-.231-.01-.464-.014-.7-.114.086-.292.116-.349.261m-3.743,1.746a3.321,3.321,0,0,1,1.914-1.213,7.337,7.337,0,0,0,.968,5.388,9.609,9.609,0,0,0,1.485,1.574,2.076,2.076,0,0,1-1.512.851l-.2-.159c.1-.308.236-.6.355-.9a13.575,13.575,0,0,1-1.713.257c.287-.451.731-.859.693-1.439a2.409,2.409,0,0,1-1.557.136c.389-.387.963-.694,1.026-1.294-.461-.05-.92-.112-1.373-.206.4-.524.947-1.026.921-1.742a4.32,4.32,0,0,1-1.25-.082,2.071,2.071,0,0,1,.245-1.167m5.4-.99a2.766,2.766,0,0,1,1.431-.13c-.527.163-1.15.084-1.582.482-.615.522-.4,1.486-.958,2.055a1.288,1.288,0,0,1-1.276.277c.017-.3-.09-.653.142-.89a12.429,12.429,0,0,1,1.154-.934,6.369,6.369,0,0,1,1.089-.86m.811.246c.911-.362,1.778.3,2.68.372a4.446,4.446,0,0,1-.271,1.208c-.436-.289-.6-.823-1.009-1.14a3.178,3.178,0,0,0-1.4-.44m-.334.875a1.213,1.213,0,0,1,1.634.062A2.515,2.515,0,0,1,493.9,185c-.575.129-1.144.284-1.706.459a8.656,8.656,0,0,1-2,.183c.6-.581.862-1.435,1.54-1.945m.6,2.181a10.153,10.153,0,0,0,1.759-.618,4.531,4.531,0,0,1-1.009,1.648c-.233-.24-.426-.619-.816-.579a3.838,3.838,0,0,0-2.36.375.849.849,0,0,0,.363,1.436,3.392,3.392,0,0,0,1.464-.008c.427-.265.713-.71,1.161-.953a7.539,7.539,0,0,0-.773,1.5,1.972,1.972,0,0,1-.314.831,1.056,1.056,0,0,1-1.19.149,5.509,5.509,0,0,1-.339-.869c-.349-.3-.794-.518-1.01-.944a1.066,1.066,0,0,1,.3-1.466c.841-.485,1.849-.294,2.762-.5m-2.1,1.077a2.518,2.518,0,0,1,1.888-.119c.261.036.1.37.122.536a5.028,5.028,0,0,0-2.01-.417m-12.374,14.262a4.9,4.9,0,0,1,3.693.073,10.948,10.948,0,0,0,2.169.273c1.047.208,2.126.146,3.173.362a10.8,10.8,0,0,1,3.036.528,6.035,6.035,0,0,0,2.335.291c.622.021,1.078-.527,1.693-.554.4-.059.726.276,1.122.239.258.008.568-.068.768.145.214.286.326.634.534.924.354.265.868.311,1.123.7a6.03,6.03,0,0,1,.712,1.424l-.455.025c-.616-.7-1.248-1.376-1.825-2.1a3.548,3.548,0,0,0-.545-.541,3.545,3.545,0,0,0,.261.936c-.36-.332-.685-.7-1.042-1.032-.174-.208-.469-.131-.705-.161-.076.647.659.982.632,1.61-.643-.033-1.133-.492-1.723-.69a7.008,7.008,0,0,0-2.263-.312,5.328,5.328,0,0,1-1.54-.452,15.764,15.764,0,0,0-3.362-.476,35.884,35.884,0,0,0-3.75-.152c-.89-.023-1.714-.45-2.6-.469a2.4,2.4,0,0,0-1.372.526,1.52,1.52,0,0,0,.094,1.959,2.863,2.863,0,0,0,1.7.776c1.25.118,2.5-.007,3.756.022,1.271.031,2.526-.2,3.8-.175.9-.046,1.8,0,2.7.034l-.145-.278a5.77,5.77,0,0,0-2.164-.357q-3.074-.061-6.15-.021c-.695.008-1.536.189-2.07-.376a.734.734,0,0,1-.08-1.065,6.354,6.354,0,0,1,2.635.027c1.316.269,2.675.093,3.991.35a26.023,26.023,0,0,1,3.4.583c1.469.316,3.146.093,4.389,1.1a1.655,1.655,0,0,0,1.312.467c.012-.349.037-.7.076-1.042a12.1,12.1,0,0,1,1.253.408,1.886,1.886,0,0,1,.989,1.14c-5.824.08-11.653,0-17.478-.01a4.7,4.7,0,0,1-2.7-.92,2.368,2.368,0,0,1-.68-2.428,2.278,2.278,0,0,1,1.314-1.307m-26.7,6.912c.062-.346.47-.26.73-.3q22.278,0,44.557,0a34.429,34.429,0,0,1,3.486.075c0,.078.01.235.014.314-16.063.024-32.125-.005-48.187.014-.2-.027-.444.046-.6-.107M493.3,209.29l.516.046a1.359,1.359,0,0,1,.04.772c-.238-.009-.477-.017-.713-.027a.862.862,0,0,1,.156-.791m-38.062.34c.443-.01.886-.012,1.33-.014a31.464,31.464,0,0,0,.08,3.164,9.267,9.267,0,0,0,2.195.051c1.694.034,3.4.1,5.088-.017-.005-.088-.018-.261-.025-.349a1.449,1.449,0,0,0-.735-.254c-1.444-.01-2.889.009-4.335,0-.387-.031-.873.009-1.119-.359-.312-.461-.119-1.043-.1-1.554a.42.42,0,0,0-.173.329,6.567,6.567,0,0,0,.121,1.4c-1.017-.289-.844-1.771-.067-2.239.44-.379,1.035-.109,1.542-.068a2.607,2.607,0,0,0-.254.746.615.615,0,0,0,.581.393c1.489.04,2.98-.028,4.47.023a1.66,1.66,0,0,1,1.36.838,6.984,6.984,0,0,1,.144,2.111,9,9,0,0,1-1.126.084c-2.1-.008-4.193,0-6.29,0a7.639,7.639,0,0,1-2.34-.188.716.716,0,0,1-.359-.761c0-1.112-.009-2.224.013-3.335m40.342-.01c.449,0,.9,0,1.35,0,.02,1.034-.011,2.067.018,3.1a4.521,4.521,0,0,0,2.01.073,16.842,16.842,0,0,0,.026-1.908c.435-.017.873-.018,1.309-.01.009.991.049,1.984-.025,2.974a22.655,22.655,0,0,1-2.508.067,7.016,7.016,0,0,1-1.726-.156c-.435-.06-.447-.584-.5-.921a22.013,22.013,0,0,1,.05-3.22m-27.6.03a11.026,11.026,0,0,1,1.377,0c.058,1.04-.012,2.082.044,3.122q.417.049.837.089a9.184,9.184,0,0,0-.017-1.99c.436,0,.873,0,1.309.026a5.911,5.911,0,0,1,.187,1.913c.206.007.411.018.617.033a6.063,6.063,0,0,0-.069-1.976c.455,0,.911.005,1.367.034a9.5,9.5,0,0,1,.1,1.871h.7a13,13,0,0,0-.071-1.9,4.864,4.864,0,0,1,1.308.075,1.425,1.425,0,0,1,.153.835c0,.685-.008,1.371,0,2.057a17.244,17.244,0,0,1-2.437.077c-1.356-.013-2.714.028-4.069-.016-.487-.068-1.237-.035-1.312-.682a35.2,35.2,0,0,1-.026-3.565m8.3-.007c.45-.021.9-.021,1.348,0,.043,1.022.016,2.044.016,3.066a14.416,14.416,0,0,0,2.614.064c.014-.626.018-1.252,0-1.877q.67-.035,1.341-.008c-.014.984-.008,1.969-.007,2.954a19.621,19.621,0,0,1-2.568.077,7.983,7.983,0,0,1-2.346-.184c-.341-.142-.406-.561-.406-.887-.008-1.066-.009-2.134.012-3.2m8.611.426c.283-.335.761-.306,1.153-.4-.214.374-.385.81-.055,1.178,1.567.061,3.137-.007,4.706.03a1.7,1.7,0,0,1,1.482.853,3.584,3.584,0,0,1,.16,1.036,13.313,13.313,0,0,0,1.406,0c.013-.627.016-1.253,0-1.881.453-.02.907-.02,1.361,0-.008.984,0,1.97-.008,2.955a8.345,8.345,0,0,1-2.057.041,1.362,1.362,0,0,1-.642-.358.742.742,0,0,1-.659.391c-2.055.012-4.109-.008-6.165.006a9.714,9.714,0,0,1-1.292-.074c0-.327,0-.652,0-.978,1.348.008,2.7-.026,4.045,0,.864-.059,1.731.03,2.591-.086,0-.078-.01-.236-.014-.316a1.407,1.407,0,0,0-.736-.256c-1.444-.009-2.889.005-4.333,0a1.279,1.279,0,0,1-1.091-.371,1.325,1.325,0,0,1,.152-1.772m-33.209.827a11.014,11.014,0,0,1,2.176-.021.994.994,0,0,1,.864.937c.05.674.008,1.353.013,2.03a18.721,18.721,0,0,1-2.584.068,1.857,1.857,0,0,1-.962-.246,2.372,2.372,0,0,1-.191-1.035,7.517,7.517,0,0,0,2.52.122c-.048-.2-.122-.41-.339-.468a3.3,3.3,0,0,0-1.506.094c-.005-.494-.005-.986.009-1.481m14.547-.03c.432-.028.868-.029,1.3-.016.022.967.024,1.934.013,2.9a1.3,1.3,0,0,1-.86,1.146,2,2,0,0,1-1.455.058,5.066,5.066,0,0,0,.755-.631,1.725,1.725,0,0,0,.257-1.1c-.005-.788-.007-1.575-.012-2.363m12.153,3.4a1.066,1.066,0,0,1,.884.214c.219-.186.611-.4.818-.094.19.231-.017.469-.177.646-.241.057-.446-.1-.646-.208a1.458,1.458,0,0,1-.846.205c-.017-.255-.029-.51-.033-.763m2.056-.03.583.007a1.219,1.219,0,0,1-.038.784c-.174.006-.349.017-.521.027a.687.687,0,0,1-.024-.818m17.855.039c.252-.008.5-.011.757-.005,0,.248-.013.5-.026.749-.235-.026-.59.135-.7-.162-.1-.176-.022-.392-.035-.582m-47.124,2.143q24.383-.014,48.766,0c0,.132,0,.267,0,.4q-24.385,0-48.767,0v-.4Z"
                            transform="translate(-451 -152)" fill="#9db0cb" />
                    </svg>