<svg id="Group_13085" data-name="Group 13085" xmlns="http://www.w3.org/2000/svg" width="63.589"
height="63.425" viewBox="0 0 63.589 63.425">
<g id="Group_2491" data-name="Group 2491" transform="translate(0 0)">
    <path id="Path_7130" data-name="Path 7130"
        d="M425.873,107.145a5.573,5.573,0,0,0,1.212.11,31.63,31.63,0,0,1,29.17,30.633,30.428,30.428,0,0,1-3.407,15.306A31.393,31.393,0,0,1,431.5,169.8a29.253,29.253,0,0,1-6.006.754,31.709,31.709,0,0,1-32.423-26.727,27.538,27.538,0,0,1-.336-3.343.349.349,0,0,0-.054-.233v-2.815c.073-.063.05-.15.054-.229a27.874,27.874,0,0,1,.708-5.26,31.437,31.437,0,0,1,16.641-21.365,30.236,30.236,0,0,1,11.759-3.326,5.207,5.207,0,0,0,1.208-.113Zm28.983,31.738a30.377,30.377,0,1,0-30.768,30.285A30.321,30.321,0,0,0,454.856,138.883Z"
        transform="translate(-392.681 -107.145)" fill="#9db0cb" />
    <path id="Path_7172" data-name="Path 7172"
        d="M494.863,184.122a25.145,25.145,0,1,1-24.833-25.068A25.131,25.131,0,0,1,494.863,184.122Zm-49.545,0a24.407,24.407,0,1,0,24.67-24.338A24.406,24.406,0,0,0,445.318,184.126Z"
        transform="translate(-437.919 -152.413)" fill="#9db0cb" />
    <path id="Path_7173" data-name="Path 7173"
        d="M638.378,125.677c-.064.686-.12,1.364-.191,2.041-.05.472-.032.5.439.547.193.018.386.035.579.055.15.015.306.006.372-.144s-.078-.215-.165-.3c-.26-.241-.523-.478-.8-.734.456-.293.869-.576,1.3-.829.289-.17.6.029.929.054-.29.212-.573.434-.872.631-.22.145-.305.255-.048.454a1.49,1.49,0,0,1,.5.719c.1.292.346.13.523.163.154.028.2-.106.2-.243a1.035,1.035,0,0,0,.023-.212c-.1-.573.288-.777.759-.992-.02.4-.027.773-.061,1.141-.022.232.019.339.287.377.805.114.693.133.811-.626a.455.455,0,0,1,.29-.418c.176-.069.343-.164.546-.264-.068.449-.121.861-.2,1.269-.031.162.02.226.164.257.818.173.714.3.9-.513a.52.52,0,0,1,.383-.446c.155-.046.3-.118.485-.191a8.244,8.244,0,0,1-.271,1.23c-.051.205-.023.286.191.335.779.181.706.282.872-.509.071-.34.3-.4.541-.488.222-.077.244-.15.083-.326-.3-.33-.295-.342.091-.569.108-.063.223-.223.345-.132a1.981,1.981,0,0,1,.425.476c.062.091-.074.132-.137.157a.911.911,0,0,0-.569.79c-.07.4-.192.791-.3,1.183a.587.587,0,0,1-.8.472c-.278-.064-.553-.141-.832-.2-.158-.034-.27-.086-.151-.356a.742.742,0,0,1-.757.125,21.26,21.26,0,0,0-2.168-.378,8.9,8.9,0,0,0-1.169-.046c-.936-.1-1.88-.018-2.818-.123-.56-.063-.753-.277-.692-.84a10.579,10.579,0,0,0,.128-1.49A1,1,0,0,1,638.378,125.677Z"
        transform="translate(-606.023 -123.307)" fill="#9db0cb" />
    <path id="Path_7174" data-name="Path 7174"
        d="M544.148,144.409a1.618,1.618,0,0,1-1.075.708c-.154.053-.317.082-.467.144-.231.1-.409.113-.434-.261a2.823,2.823,0,0,1-1.508.867c-.16.058-.226.039-.286-.134-.222-.64-.234-.652.426-.836a1.008,1.008,0,0,0,.713-.6c.195-.448.419-.883.612-1.331.086-.2.172-.22.359-.114.363.206.743.383,1.114.575.081.042.155.1.234.145.118.071.12.3.3.267a4.754,4.754,0,0,0,.7-.223.159.159,0,0,0,.1-.2.959.959,0,0,0-.069-.233c-.3-.528-.019-.89.361-1.257.191.606.388,1.19.556,1.783a.545.545,0,0,1-.4.687c-.25.086-.508.152-.756.245C544.4,144.714,544.209,144.783,544.148,144.409Zm-1.524-.735a1.4,1.4,0,0,0-.249.567.159.159,0,0,0,.212.186c.226-.078.529-.037.635-.329C543.257,144,542.8,143.662,542.624,143.674Z"
        transform="translate(-521.316 -137.471)" fill="#9db0cb" />
    <path id="Path_7175" data-name="Path 7175"
        d="M840.515,340.412c.255-.132.452-.239.653-.335.123-.059.142-.118.051-.227-.129-.156-.246-.322-.416-.547.265.035.467.059.669.09.143.021.213-.006.177-.174s-.051-.361-.082-.595c.193.124.361.222.519.334.123.087.191.075.245-.072.073-.2.164-.391.275-.652.106.242.2.425.266.617.059.168.126.211.279.093.135-.105.285-.19.453-.3a1.318,1.318,0,0,1-.038.554c-.013.164.033.226.2.194.19-.035.381-.055.638-.09a3.44,3.44,0,0,1-.308.414c-.228.223-.145.343.109.445.149.06.288.147.452.232a1.375,1.375,0,0,1-.513.209c-.2.057-.21.138-.1.3s.2.352.314.553a1.045,1.045,0,0,1-.516-.073c-.264-.08-.3.026-.268.248a1.474,1.474,0,0,1,.04.549,4.293,4.293,0,0,1-.4-.312c-.213-.21-.31-.131-.381.117-.05.174-.129.34-.207.538a2.794,2.794,0,0,1-.285-.66c-.057-.141-.115-.169-.239-.065-.161.135-.334.256-.533.407.031-.26.046-.474.083-.683.027-.154-.037-.184-.164-.159-.2.038-.393.08-.651.134a5.775,5.775,0,0,1,.314-.55c.162-.222.083-.313-.15-.368C840.852,340.538,840.71,340.478,840.515,340.412Zm2.105-.608a.587.587,0,0,0-.6.593.6.6,0,0,0,.6.6.626.626,0,0,0,.6-.583A.606.606,0,0,0,842.62,339.8Z"
        transform="translate(-783.084 -308.677)" fill="#9db0cb" />
    <path id="Path_7176" data-name="Path 7176"
        d="M413,338.949c.011.292-.19.6-.013.739.131.1.445-.023.677-.047.009,0,.019.006.056.019a1.1,1.1,0,0,1-.28.406c-.192.2-.135.312.1.405.16.063.308.155.514.261-.218.079-.387.152-.563.2s-.193.115-.1.258c.113.18.213.368.333.579a.917.917,0,0,1-.459-.051c-.345-.059-.345-.067-.312.29.014.151.038.3.061.485a2.461,2.461,0,0,1-.53-.377c-.123-.1-.188-.083-.24.067-.072.209-.159.414-.269.7-.1-.259-.188-.446-.248-.642-.067-.219-.16-.221-.316-.082-.134.119-.284.222-.439.342a1.268,1.268,0,0,1,.037-.546c.024-.224-.01-.334-.27-.248a4.564,4.564,0,0,1-.53.107c.131-.234.23-.429.346-.614.087-.137.075-.214-.089-.263s-.346-.118-.572-.2a4.326,4.326,0,0,1,.507-.266c.281-.1.278-.231.089-.427a4.956,4.956,0,0,1-.321-.419c.249.033.443.05.633.087s.232-.021.213-.2a1.494,1.494,0,0,1-.051-.519,1.645,1.645,0,0,1,.473.28c.135.093.207.092.266-.075.067-.191.156-.374.249-.59a1.66,1.66,0,0,1,.293.592c.067.162.137.172.268.076C412.658,339.167,412.815,339.072,413,338.949Zm-.422,1.775a.607.607,0,0,0-.614-.594.617.617,0,0,0-.6.578.607.607,0,1,0,1.214.015Z"
        transform="translate(-407.685 -309.003)" fill="#9db0cb" />
    <path id="Path_7177" data-name="Path 7177"
        d="M583.79,131.29c.113.829.223,1.583.315,2.339.023.19.1.239.273.213.545-.08,1.091-.149,1.636-.225.112-.016.242-.032.259-.169.015-.114-.094-.172-.176-.231s-.191-.118-.28-.186c-.21-.159-.381-.216-.576.053-.217.3-.325-.053-.475-.127-.174-.086-.121-.19-.011-.306.162-.17.315-.348.461-.532.1-.122.182-.124.307-.037.393.274.8.532,1.19.808a.858.858,0,0,1,.346.89.755.755,0,0,1-.586.6,12.638,12.638,0,0,1-2.109.355c-.267.038-.61.205-.788.044-.152-.138-.108-.494-.145-.755-.09-.635-.174-1.27-.265-1.9a.356.356,0,0,1,.12-.353C583.446,131.628,583.594,131.477,583.79,131.29Z"
        transform="translate(-558.733 -128.202)" fill="#9db0cb" />
    <path id="Path_7178" data-name="Path 7178"
        d="M616.63,134.937a4.217,4.217,0,0,1-.427-.035.926.926,0,0,1-.551-1.53c.274-.329.581-.63.863-.951.09-.1.147-.1.244-.013.317.288.656.554.958.857a1,1,0,0,1,.238,1.021.8.8,0,0,1-.687.574A2.548,2.548,0,0,1,616.63,134.937Zm.036-.957v.007a2.61,2.61,0,0,0,.4-.036c.157-.038.221-.137.124-.3-.256-.42-.534-.453-.847-.1-.027.031-.056.06-.08.093-.135.189-.071.332.163.351A1.419,1.419,0,0,0,616.666,133.98Z"
        transform="translate(-586.855 -129.12)" fill="#9db0cb" />
    <path id="Path_7179" data-name="Path 7179"
        d="M737.748,524.711c.2.288.061.425-.184.519-.167.065-.174.159-.085.306.185.3.346.624.533.927.1.159.082.237-.09.326-.459.236-.342.242-.576-.158a7.962,7.962,0,0,1-.4-.721c-.1-.23-.233-.245-.409-.1-.194.157-.3.1-.414-.109-.106-.19-.047-.252.112-.342.613-.346,1.244-.663,1.825-1.061a.261.261,0,0,1,.332.006c.144.093.3.172.514.3-.084-.514-.166-.991.482-1.111a2.216,2.216,0,0,1,.063.707,1.759,1.759,0,0,0,.362,1.2c.181.2-.031.274-.15.326s-.249.331-.382.049C738.977,525.118,738.312,525.011,737.748,524.711Z"
        transform="translate(-692.03 -470.237)" fill="#9db0cb" />
    <path id="Path_7180" data-name="Path 7180"
        d="M595.629,559.182c.137-.282.286-.559.407-.848a.311.311,0,0,1,.422-.211c.486.11.49.1.406.589-.077.451-.168.9-.238,1.352-.042.272-.214.148-.343.125s-.306.026-.238-.231a3.019,3.019,0,0,0,.094-.9c-.126.274-.265.543-.372.825-.068.178-.17.182-.33.163s-.221-.088-.228-.252c-.012-.291-.051-.58-.084-.935a2.832,2.832,0,0,0-.206.876c-.049.281-.218.171-.363.151s-.28-.029-.223-.272c.119-.514.193-1.039.275-1.562.028-.177.094-.231.282-.206.559.074.571.077.614.633.018.232.042.463.063.695Z"
        transform="translate(-568.461 -500.201)" fill="#9db0cb" />
    <path id="Path_7181" data-name="Path 7181"
        d="M725.039,147.454c.384.75.775,1.42,1.075,2.128a.777.777,0,0,1-.912,1.054,5.313,5.313,0,0,1-1.213-.412c-.019-.008-.046-.014-.053-.029-.135-.288.146-.463.195-.7.028-.141.113-.136.226-.084.231.108.466.207.7.308.1.045.213.1.31-.006s.016-.2-.03-.281a8.806,8.806,0,0,0-.487-.847.526.526,0,0,1-.037-.64A5.224,5.224,0,0,0,725.039,147.454Z"
        transform="translate(-681.423 -142.298)" fill="#9db0cb" />
    <path id="Path_7182" data-name="Path 7182"
        d="M643.734,562.983c0-.262.006-.525,0-.786-.011-.361.27-.176.42-.226.189-.064.19.07.195.2.017.5.047,1,.054,1.5,0,.111.1.3-.1.329s-.444.15-.61-.109c-.185-.29-.381-.573-.62-.932a4.044,4.044,0,0,0,.024.851c.023.173-.026.288-.224.261-.16-.022-.409.137-.413-.216-.005-.5-.04-1-.05-1.5,0-.106-.093-.279.086-.307.206-.033.449-.157.617.089.194.284.38.574.57.862Z"
        transform="translate(-610.361 -503.784)" fill="#9db0cb" />
    <path id="Path_7183" data-name="Path 7183"
        d="M533.583,536.954c-.046.1-.093.2-.141.3-.209.43-.43.855-.624,1.293-.1.235-.233.133-.355.055s-.4-.055-.249-.336a1.744,1.744,0,0,1,.109-.219c.179-.245.109-.379-.164-.492-.188-.078-.3-.094-.364.124a.858.858,0,0,1-.066.137.379.379,0,0,1-.682.1c-.066-.069-.037-.127-.006-.192.254-.522.51-1.043.761-1.566.051-.106.109-.132.214-.069a2.065,2.065,0,0,0,.3.147c.126.05.141.122.073.23-.038.06-.059.131-.1.189-.148.208-.083.3.134.433.344.205.376-.055.489-.246.048-.082.038-.267.195-.212a1.159,1.159,0,0,1,.475.26C533.595,536.9,533.584,536.929,533.583,536.954Z"
        transform="translate(-513.268 -481.199)" fill="#9db0cb" />
    <path id="Path_7184" data-name="Path 7184"
        d="M701.37,551.416c-.2.231.012.354.188.531a1.919,1.919,0,0,1,.271.541c.033.069-.021.09-.066.106-.1.035-.2.052-.29.1-.187.091-.287.031-.337-.16a1.162,1.162,0,0,0-.077-.2c-.1-.219-.267-.151-.443-.106-.225.057-.128.189-.092.3.144.466.119.5-.335.6-.112.024-.146-.009-.177-.1q-.281-.823-.566-1.646c-.042-.12-.015-.191.113-.23.37-.113.734-.254,1.109-.345C701.066,550.716,701.361,550.967,701.37,551.416Zm-1,.412c.154-.085.392-.052.429-.286.016-.1-.064-.226-.18-.2-.149.038-.378-.011-.407.222A.223.223,0,0,0,700.369,551.828Z"
        transform="translate(-660.09 -494.051)" fill="#9db0cb" />
    <path id="Path_7185" data-name="Path 7185"
        d="M516.368,528.324c.477-.2.953-.4,1.344.144-.224.061-.454.136-.689.185a.278.278,0,0,0-.258.333c.015.406,0,.813,0,1.211-.457-.094-.608-.283-.622-.766,0-.168.1-.428-.106-.484s-.273.213-.35.365c-.182.36-.34.048-.5,0-.225-.071-.151-.2-.061-.343.278-.45.558-.9.813-1.363.137-.248.26-.1.386-.021s.366.122.177.368a2.8,2.8,0,0,0-.182.31Z"
        transform="translate(-499.35 -473.707)" fill="#9db0cb" />
    <path id="Path_7186" data-name="Path 7186"
        d="M624.11,562.644c0-.152-.006-.305,0-.458.019-.421.02-.413.437-.386.172.011.234.074.225.242-.018.315-.014.631-.041.945-.021.246.012.435.305.452s.338-.193.348-.424c.013-.315.046-.629.044-.944s.206-.2.359-.2.319-.009.3.231c-.025.355-.032.711-.059,1.066a.75.75,0,0,1-.79.792,1.766,1.766,0,0,1-.607-.057.707.707,0,0,1-.563-.766c0-.162.019-.325.029-.487Z"
        transform="translate(-594.397 -503.641)" fill="#9db0cb" />
    <path id="Path_7187" data-name="Path 7187"
        d="M717.045,544.913a.537.537,0,0,1,.061,0,.5.5,0,0,1,.48.311c.023.071-.459.26-.586.23-.049-.011-.1-.049-.142-.044-.114.011-.245.048-.253.177-.011.175.145.139.248.132.2-.013.405-.045.608-.061a.5.5,0,0,1,.528.29.63.63,0,0,1-.021.668,1.335,1.335,0,0,1-1.162.486.515.515,0,0,1-.436-.336c-.024-.084.449-.287.58-.228a.388.388,0,0,0,.4-.034.154.154,0,0,0,.073-.184c-.022-.072-.091-.082-.15-.077-.183.015-.365.038-.548.059a.6.6,0,0,1-.706-.35.635.635,0,0,1,.254-.778A1.256,1.256,0,0,1,717.045,544.913Z"
        transform="translate(-674.515 -488.923)" fill="#9db0cb" />
    <path id="Path_7188" data-name="Path 7188"
        d="M686.274,555.318c.042.126-.034.149-.12.169-.2.047-.4.092-.593.149-.086.025-.218.017-.18.183s.161.115.263.094.217-.056.324-.087c.168-.049.283-.04.332.174s-.05.252-.21.282c-.11.021-.219.048-.327.076s-.238.056-.19.238.151.118.26.09c.2-.051.4-.083.592-.15s.226.048.252.185.094.251-.122.3c-.428.091-.853.2-1.275.317-.147.04-.2,0-.233-.137q-.2-.814-.416-1.625c-.038-.141.01-.209.145-.242q.608-.151,1.214-.31C686.286,554.943,686.221,555.19,686.274,555.318Z"
        transform="translate(-647.18 -497.725)" fill="#9db0cb" />
    <path id="Path_7189" data-name="Path 7189"
        d="M575.858,556.463c.384-.564.752-1.1,1.115-1.641.072-.108.143-.167.273-.1.167.086.456-.007.486.274.064.606.1,1.216.15,1.824.014.165-.061.2-.2.151-.178-.063-.414-.034-.434-.33-.007-.107-.528-.245-.635-.19C576.27,556.626,576.27,556.626,575.858,556.463Zm1.318-.988c-.086.139-.157.239-.211.347-.031.062-.136.126-.041.208a.306.306,0,0,0,.26.063c.106-.023.094-.131.075-.2C577.225,555.767,577.279,555.629,577.175,555.475Z"
        transform="translate(-552.367 -497.453)" fill="#9db0cb" />
    <path id="Path_7190" data-name="Path 7190"
        d="M548.772,545.969c0,.5,0,1,0,1.5,0,.165-.061.2-.2.129-.176-.09-.42-.084-.412-.4,0-.151-.548-.294-.679-.2a.727.727,0,0,1-.621-.1c-.054-.1.042-.146.09-.2.381-.439.772-.87,1.146-1.314.107-.127.211-.152.335-.068.149.1.442.042.413.355-.009.1,0,.2,0,.306Zm-.493.068a1.161,1.161,0,0,0-.308.338c-.04.049-.131.108-.06.176a.34.34,0,0,0,.278.1c.1-.016.064-.115.067-.178A1.14,1.14,0,0,0,548.279,546.037Z"
        transform="translate(-527.077 -489.225)" fill="#9db0cb" />
    <path id="Path_7191" data-name="Path 7191"
        d="M715.008,141.326l-1.212,3.087a.15.15,0,0,1-.21.106c-.51-.13-.541-.185-.35-.664.256-.642.526-1.28.752-1.933a.616.616,0,0,1,.541-.486C714.668,141.418,714.8,141.374,715.008,141.326Z"
        transform="translate(-672.033 -136.954)" fill="#9db0cb" />
    <path id="Path_7192" data-name="Path 7192"
        d="M667.318,558.685c.653-.127.653-.127.908.431a2.521,2.521,0,0,0,.333.577c.038-.322.078-.643.112-.966a.5.5,0,0,1,.587-.373c.085.032.06.09.051.148-.1.612-.2,1.223-.288,1.835-.026.172-.162.189-.27.182-.155-.009-.34.187-.465-.041C667.964,559.893,667.65,559.3,667.318,558.685Z"
        transform="translate(-632.098 -500.63)" fill="#9db0cb" />
    <path id="Path_7193" data-name="Path 7193"
        d="M566.666,551.246c-.123-.039-.271-.079-.413-.132-.122-.046-.048-.138-.027-.206.107-.339.205-.681.335-1.011.087-.22.024-.3-.19-.363a.307.307,0,0,1-.139-.537c.071-.08.13-.022.191,0,.465.15.926.313,1.394.453.245.073.139.212.1.353-.041.161-.112.26-.289.158-.3-.171-.42-.04-.493.252s-.179.582-.279.87C566.833,551.158,566.828,551.278,566.666,551.246Z"
        transform="translate(-543.882 -492.45)" fill="#9db0cb" />
    <path id="Path_7194" data-name="Path 7194"
        d="M677.333,127.645c-.125.089-.173.126-.223.159-.5.322-.506.33-.906-.1-.138-.147-.228-.1-.361-.019-.435.27-.445.273-.781-.115-.133-.153-.244-.2-.4-.052a.186.186,0,0,1-.053.031c-.135.059-.257.258-.389.181a2.306,2.306,0,0,1-.449-.453c-.012-.013-.024-.049-.02-.052.189-.135.374-.276.572-.4.121-.073.174.063.249.122a.668.668,0,0,1,.061.069c.312.333.321.346.7.078.194-.137.318-.125.452.061.065.09.153.163.225.249a.159.159,0,0,0,.237.043c.172-.1.343-.332.515-.277C676.967,127.24,677.121,127.461,677.333,127.645Z"
        transform="translate(-637.706 -124.295)" fill="#9db0cb" />
    <path id="Path_7195" data-name="Path 7195"
        d="M731.25,542.011c-.167.087-.329.18-.5.257-.13.059-.152-.069-.189-.142-.25-.489-.491-.982-.742-1.47-.068-.133-.065-.2.084-.283.422-.224.418-.232.627.184l.615,1.226C731.177,541.848,731.2,541.913,731.25,542.011Z"
        transform="translate(-686.547 -484.831)" fill="#9db0cb" />
    <path id="Path_7196" data-name="Path 7196"
        d="M661.05,561.169c.171-.047.236.027.252.231.038.495.1.988.166,1.48.03.223-.018.346-.269.349-.2,0-.392.08-.4-.258-.016-.454-.092-.907-.147-1.359C660.6,561.2,660.609,561.186,661.05,561.169Z"
        transform="translate(-626.266 -503.089)" fill="#9db0cb" />
    <path id="Path_7197" data-name="Path 7197"
        d="M564,133.656c.037-.068.064-.122.095-.173.311-.515.314-.521.861-.3.155.063.247.048.314-.1a.463.463,0,0,1,.065-.1c.087-.107.114-.326.257-.31a2.48,2.48,0,0,1,.6.216c.018.007.047.029.045.037a2.719,2.719,0,0,1-.327.576c-.075.133-.171.062-.264.03a.764.764,0,0,1-.142-.056c-.271-.163-.483-.159-.611.18-.1.257-.267.328-.517.171A2.69,2.69,0,0,0,564,133.656Z"
        transform="translate(-542.032 -129.401)" fill="#9db0cb" />
    <path id="Path_7198" data-name="Path 7198"
        d="M596.526,127.209a6.68,6.68,0,0,1-.5.469c-.131.1-.214-.061-.3-.122-.379-.261-.379-.269-.04-.587.089-.083.157-.267.307-.193a3.607,3.607,0,0,1,.52.366C596.518,127.15,596.517,127.176,596.526,127.209Z"
        transform="translate(-569.429 -124.25)" fill="#9db0cb" />
    <path id="Path_7199" data-name="Path 7199" d="M645.936,130.745c-.007-.625.583-1,1.287-.8Z"
        transform="translate(-613.458 -126.981)" fill="#9db0cb" />
    <path id="Path_7200" data-name="Path 7200"
        d="M589.2,309.52c-.156-.406-.291-.753-.424-1.1-.242-.637-.492-1.272-.72-1.914-.076-.216-.147-.215-.311-.086-.713.563-1.434,1.116-2.152,1.673-.031.024-.066.041-.15.093.053-.454.1-.861.149-1.268q.1-.818.217-1.635c.027-.19.015-.275-.231-.22-.9.2-1.813.382-2.787.583.075-.138.123-.23.174-.319.456-.8.908-1.593,1.373-2.383.108-.184.111-.259-.12-.333-.843-.27-1.678-.564-2.582-.872l1.506-.779c.4-.206.793-.422,1.2-.609.213-.1.215-.177.08-.349-.547-.7-1.082-1.407-1.621-2.113-.03-.039-.057-.08-.125-.176.481.061.907.113,1.333.169.506.067,1.014.122,1.516.214.264.048.321-.019.281-.27-.123-.764-.232-1.53-.344-2.295-.01-.07-.009-.141-.014-.214.116-.041.174.048.243.093q.961.629,1.917,1.264c.316.209.317.209.467-.151q.5-1.2,1-2.4c.035-.083.077-.162.136-.287.369.884.722,1.725,1.073,2.567.2.479.2.479.64.185l2.06-1.363c-.122.838-.232,1.62-.352,2.4-.076.493-.082.5.414.434.876-.112,1.752-.231,2.7-.356l-1.352,1.774c-.142.186-.278.379-.431.556-.121.141-.094.209.067.29.819.414,1.634.837,2.45,1.258.079.041.154.087.28.158-.721.245-1.392.471-2.061.7-.239.083-.6.091-.679.284s.193.437.315.655c.413.737.837,1.468,1.293,2.264l-1.414-.293c-.429-.09-.858-.183-1.288-.271-.342-.07-.35-.066-.306.3.088.718.187,1.434.279,2.151.027.209.048.419.077.682-.383-.3-.729-.561-1.074-.828-.4-.313-.812-.619-1.206-.943-.183-.15-.265-.154-.353.09-.317.87-.653,1.733-.983,2.6C589.322,309.239,589.274,309.348,589.2,309.52Z"
        transform="translate(-557.41 -269.959)" fill="#9db0cb" />
    <path id="Path_7201" data-name="Path 7201"
        d="M678.3,202.29a15.755,15.755,0,0,0-.538-7.1.835.835,0,0,1,.133-.807,9.9,9.9,0,0,0,1.508-3.416c.059-.242.126-.3.379-.194a8.656,8.656,0,0,0,4.146.752.79.79,0,0,1,.948.565,8.8,8.8,0,0,0,2.732,3.208c.176.134.221.189.03.37a10.094,10.094,0,0,0-2.341,3.22.481.481,0,0,1-.381.293,16.938,16.938,0,0,0-5.659,2.4C678.941,201.792,678.641,202.037,678.3,202.29Z"
        transform="translate(-641.164 -180.031)" fill="#9db0cb" />
    <path id="Path_7202" data-name="Path 7202"
        d="M535.676,430.053a12.679,12.679,0,0,0-.191,2.213,17.835,17.835,0,0,0,.833,5.075.5.5,0,0,1-.079.5,10,10,0,0,0-1.564,3.524c-.069.29-.142.352-.431.232a8.6,8.6,0,0,0-4.155-.7.733.733,0,0,1-.882-.517,8.789,8.789,0,0,0-2.72-3.179c-.227-.172-.28-.247-.043-.476a9.992,9.992,0,0,0,2.281-3.226.421.421,0,0,1,.345-.249,17.328,17.328,0,0,0,5.466-2.319A11.252,11.252,0,0,0,535.676,430.053Z"
        transform="translate(-509.155 -388.754)" fill="#9db0cb" />
    <path id="Path_7203" data-name="Path 7203"
        d="M711.269,247.867a13.8,13.8,0,0,0,2.424-3.952,18.9,18.9,0,0,0,.881-2.6.39.39,0,0,1,.248-.308,10.226,10.226,0,0,0,3.313-2.268c.163-.165.234-.174.381.025a9.065,9.065,0,0,0,3.61,3.041.184.184,0,0,1,.127.233,9.141,9.141,0,0,0,.648,4.754c.063.158.017.2-.144.233a10.363,10.363,0,0,0-3.805,1.613c-.151.108-.27.038-.4,0a17.265,17.265,0,0,0-6-.889C712.151,247.763,711.746,247.821,711.269,247.867Z"
        transform="translate(-670.413 -221.8)" fill="#9db0cb" />
    <path id="Path_7204" data-name="Path 7204"
        d="M534.733,204.29a12.131,12.131,0,0,0-2.077-1.43,18.39,18.39,0,0,0-4.538-1.711.424.424,0,0,1-.345-.251,10.172,10.172,0,0,0-2.37-3.274c-.176-.166-.133-.22.031-.345a9.09,9.09,0,0,0,2.972-3.665.2.2,0,0,1,.252-.15,9.02,9.02,0,0,0,4.636-.709c.209-.085.294-.1.359.168a10.139,10.139,0,0,0,1.649,3.652.4.4,0,0,1,.047.4,18.746,18.746,0,0,0-.8,4.806,11.176,11.176,0,0,0,.151,2.161C534.71,204.028,534.715,204.119,534.733,204.29Z"
        transform="translate(-508.283 -181.758)" fill="#9db0cb" />
    <path id="Path_7205" data-name="Path 7205"
        d="M491.073,250.447a16,16,0,0,0-7.363.664.363.363,0,0,1-.365-.036,10.141,10.141,0,0,0-3.669-1.625c-.248-.058-.3-.127-.2-.374a9.241,9.241,0,0,0,.739-4.023.347.347,0,0,0,0-.091c-.2-.573.123-.779.6-1.01a8.8,8.8,0,0,0,3.116-2.706c.141-.187.214-.232.4-.042a10.1,10.1,0,0,0,3.311,2.325c.185.078.188.223.224.363a18.027,18.027,0,0,0,1.965,4.852A11.771,11.771,0,0,0,491.073,250.447Z"
        transform="translate(-468.304 -223.952)" fill="#9db0cb" />
    <path id="Path_7206" data-name="Path 7206"
        d="M712.092,390.89a12.062,12.062,0,0,0,3.069.265,18.135,18.135,0,0,0,4.226-.645.537.537,0,0,1,.529.1,10.252,10.252,0,0,0,3.537,1.693c.226.063.27.124.17.343a8.467,8.467,0,0,0-.874,3.989.979.979,0,0,1-.718,1.155,8.281,8.281,0,0,0-3.107,2.523c-.2.253-.283.219-.479,0a10.117,10.117,0,0,0-3.13-2.365.429.429,0,0,1-.252-.344,16.7,16.7,0,0,0-2.4-5.935C712.493,391.422,712.307,391.183,712.092,390.89Z"
        transform="translate(-671.13 -354.243)" fill="#9db0cb" />
    <path id="Path_7207" data-name="Path 7207"
        d="M483.345,403.585a10.576,10.576,0,0,0-2.169-2.225,7.4,7.4,0,0,0-1.608-.938c-.142-.058-.21-.112-.187-.284a8.972,8.972,0,0,0-.719-4.653c-.091-.219-.019-.268.173-.314a10.269,10.269,0,0,0,3.693-1.643.4.4,0,0,1,.4-.035,17.655,17.655,0,0,0,5.8.8,12.934,12.934,0,0,0,1.5-.174,1.857,1.857,0,0,1-.339.454,15.669,15.669,0,0,0-2.686,5.712,1.293,1.293,0,0,1-.791.984,9.308,9.308,0,0,0-2.6,1.861C483.655,403.273,483.512,403.419,483.345,403.585Z"
        transform="translate(-467.601 -356.839)" fill="#9db0cb" />
    <path id="Path_7208" data-name="Path 7208"
        d="M473.6,323.3a14.8,14.8,0,0,0-5.61,3.668,1.753,1.753,0,0,1-1.555.58,8.892,8.892,0,0,0-3.292.406c-.248.073-.3.012-.334-.228a8.913,8.913,0,0,0-1.664-4.37c-.1-.129-.072-.2.013-.311a8.935,8.935,0,0,0,1.713-4.288c.036-.249.081-.345.37-.258a9.8,9.8,0,0,0,3.837.428.631.631,0,0,1,.575.238A15.885,15.885,0,0,0,473.6,323.3Z"
        transform="translate(-452.306 -291.442)" fill="#9db0cb" />
    <path id="Path_7209" data-name="Path 7209"
        d="M677.416,426.687a15.287,15.287,0,0,0,5.76,2.665,4.549,4.549,0,0,1,1.207.3c.343.206.421.7.653,1.042a11.5,11.5,0,0,0,2.008,2.3c.155.134.18.19.007.333a9.029,9.029,0,0,0-2.838,3.8.2.2,0,0,1-.248.153,9.137,9.137,0,0,0-4.655.925c-.174.08-.237.06-.294-.134a10.282,10.282,0,0,0-1.844-3.657c-.119-.147-.059-.266-.026-.4a17.933,17.933,0,0,0,.587-5.016A10.328,10.328,0,0,0,677.416,426.687Z"
        transform="translate(-640.627 -385.818)" fill="#9db0cb" />
    <path id="Path_7210" data-name="Path 7210"
        d="M608.414,185.934a12.689,12.689,0,0,0-1.346-2.686,18.662,18.662,0,0,0-2.8-3.313.481.481,0,0,1-.187-.445,9.9,9.9,0,0,0-.417-3.982c-.1-.327.138-.269.29-.29a9.9,9.9,0,0,0,3.364-1.068,5.49,5.49,0,0,0,.948-.618c.117-.1.19-.089.311,0a9.051,9.051,0,0,0,4.283,1.677c.38.054.38.048.274.429a10,10,0,0,0-.366,3.9.392.392,0,0,1-.161.363,16.887,16.887,0,0,0-3.773,5.038C608.7,185.243,608.574,185.555,608.414,185.934Z"
        transform="translate(-576.589 -164.981)" fill="#9db0cb" />
    <path id="Path_7211" data-name="Path 7211"
        d="M722.69,321.172a12.434,12.434,0,0,0,2.549-1.243,18.675,18.675,0,0,0,3.5-2.906.453.453,0,0,1,.424-.167,10.066,10.066,0,0,0,3.935-.387c.232-.064.308-.053.344.216a9.009,9.009,0,0,0,1.674,4.337.232.232,0,0,1,0,.34,8.927,8.927,0,0,0-1.683,4.3c-.038.274-.1.325-.374.248a9.975,9.975,0,0,0-3.9-.393.482.482,0,0,1-.449-.179,16.6,16.6,0,0,0-5.162-3.809C723.291,321.412,723.025,321.311,722.69,321.172Z"
        transform="translate(-680.369 -289.669)" fill="#9db0cb" />
    <path id="Path_7212" data-name="Path 7212"
        d="M609.683,439.542a16.065,16.065,0,0,0,4.551,5.775.379.379,0,0,1,.161.335,10.3,10.3,0,0,0,.654,3.982c.074.2.05.278-.175.321a9.061,9.061,0,0,0-4.318,1.976.175.175,0,0,1-.257.014,8.935,8.935,0,0,0-4.523-1.438c-.214-.014-.254-.087-.209-.279a10.035,10.035,0,0,0,.168-4.032.478.478,0,0,1,.191-.445,16.833,16.833,0,0,0,3.4-5.188C609.452,440.243,609.554,439.913,609.683,439.542Z"
        transform="translate(-578.252 -397.029)" fill="#9db0cb" />
</g>
</svg>