<svg xmlns="http://www.w3.org/2000/svg" width="66.593" height="63.015" viewBox="0 0 66.593 63.015">
    <g id="promotion" transform="translate(0 0)">
        <path id="Path_130983" data-name="Path 130983"
            d="M25.165,210.293l7.8,13.517-11.264,6.5A7.8,7.8,0,0,1,13.9,216.8Zm0,0"
            transform="translate(-8.698 -182.941)" fill="#fafafa" />
        <path id="Path_130984" data-name="Path 130984"
            d="M272.093,59.859a2.6,2.6,0,0,1-2.189,3.9l-1.463.288-.033-.165-16.743-29-.109-.086.936-1.193a2.6,2.6,0,0,1,4.473.053c25.986,45.007-6.8-11.774,15.128,26.2Zm0,0"
            transform="translate(-218.837 -28.146)" fill="#fafafa" />
        <path id="Path_130985" data-name="Path 130985"
            d="M113.916,346.606a3.9,3.9,0,0,1-6.758,3.9L100,338.117l6.758-3.9Zm0,0"
            transform="translate(-86.997 -290.745)" fill="#7ce8dd" />
        <path id="Path_130986" data-name="Path 130986"
            d="M338.943,108.934l2.6,4.506-3.2,4.854-5.2-9.011Zm0,0"
            transform="translate(-289.807 -94.765)" fill="#e9eef0" />
        <path id="Path_130987" data-name="Path 130987"
            d="M159.709,80.2l.033.165-25.333,4.968-7.8-13.517,16.252-20.7.109.086Zm0,0"
            transform="translate(-110.138 -44.464)" fill="#7ce8dd" />
        <path id="Path_130988" data-name="Path 130988"
            d="M123.915,292a1.3,1.3,0,1,0-1.777-.476A1.3,1.3,0,0,0,123.915,292Zm0,0"
            transform="translate(-106.1 -251.911)" fill="#11807f" />
        <path id="Path_130989" data-name="Path 130989"
            d="M12.484,68.515l6.55,11.346a5.2,5.2,0,1,0,9.011-5.2l-3.9-6.759,3.379-1.951A1.3,1.3,0,0,0,28,64.172l-1.691-2.93L51.22,56.356a3.9,3.9,0,0,0,3.163-5.846L50.06,43.023l2.762-4.184a1.3,1.3,0,0,0,.041-1.367l-2.6-4.506a1.3,1.3,0,0,0-1.2-.648l-5,.3-4.8-8.312a3.868,3.868,0,0,0-3.33-1.95h-.05a3.868,3.868,0,0,0-3.285,1.8L15.6,45.8,4.553,52.177a9.1,9.1,0,0,0,7.931,16.339ZM25.793,75.96a2.6,2.6,0,0,1-4.506,2.6L14.784,67.3l4.506-2.6,6.5,11.266Zm-2.95-10.314-1.3-2.253,2.253-1.3,1.3,2.253ZM48.411,34.963l1.8,3.113-1.6,2.428-3.1-5.367ZM34.765,25.581A1.3,1.3,0,0,1,37,25.607L52.13,51.81a1.3,1.3,0,0,1-1.094,1.95,4.775,4.775,0,0,0-.713.121l-16-27.718c.336-.432.379-.474.446-.583Zm-2.177,2.788L47.624,54.411,24.932,58.861l-6.9-11.95ZM3.473,63.313a6.5,6.5,0,0,1,2.38-8.884l10.137-5.853,6.5,11.264L12.357,65.694a6.511,6.511,0,0,1-8.884-2.381Zm0,0"
            transform="translate(0 -19.448)" fill="#11807f" />
        <path id="Path_130990" data-name="Path 130990"
            d="M50.915,310.223a1.3,1.3,0,0,0-1.777-.476l-2.253,1.3a1.3,1.3,0,0,1-1.777-.476,1.3,1.3,0,1,0-2.253,1.3,3.907,3.907,0,0,0,5.33,1.428l2.253-1.3a1.3,1.3,0,0,0,.476-1.777Zm0,0"
            transform="translate(-37.13 -269.308)" fill="#11807f" />
        <path id="Path_130991" data-name="Path 130991"
            d="M444.191,42.646l-7.248,4.033a1.3,1.3,0,0,0,1.265,2.273l7.247-4.033a1.3,1.3,0,0,0-1.265-2.273Zm0,0"
            transform="translate(-379.531 -36.955)" fill="#11807f" />
        <path id="Path_130992" data-name="Path 130992"
            d="M446.726,138.012l-5.025-1.346a1.3,1.3,0,1,0-.673,2.512l5.026,1.346a1.3,1.3,0,1,0,.673-2.512Zm0,0"
            transform="translate(-382.826 -118.851)" fill="#11807f" />
        <path id="Path_130993" data-name="Path 130993"
            d="M384.885.965,383.537,5.99a1.3,1.3,0,0,0,2.513.674L387.4,1.638a1.3,1.3,0,1,0-2.512-.674Zm0,0"
            transform="translate(-333.613 0)" fill="#11807f" />
    </g>
</svg>