<svg xmlns="http://www.w3.org/2000/svg" width="89.689" height="61.242" viewBox="0 0 89.689 61.242">
    <g id="Group_13112" data-name="Group 13112" transform="translate(-11524.999 -19218.119)">
        <g id="Group_12710" data-name="Group 12710" transform="translate(11562.78 19227.922)">
            <g id="Group_12589" data-name="Group 12589" transform="translate(0 0)">
                <path id="Path_86873" data-name="Path 86873"
                    d="M32.815,26.287a13.965,13.965,0,0,0,4.171-6.206c4.036,0,4.305-7.851,1.076-7.851,0,0,.156-1.074.214-2.729M32.815,26.287A10.471,10.471,0,0,1,25.954,28.8c-6.673,0-10.135-5.816-11.032-8.724-4.036,0-4.305-7.851-1.076-7.851,0,0-.156-1.074-.214-2.729M32.815,26.287s.935,3.206,2.587,4.294m-18.9,0L2.243,38.333A4.015,4.015,0,0,0,.5,41.7a3.785,3.785,0,0,0,3.618,3.932H47.789A3.785,3.785,0,0,0,51.408,41.7a4.015,4.015,0,0,0-1.743-3.363L35.4,30.581m-18.9,0c1.652-1.088,2.587-4.294,2.587-4.294m-2.587,4.294c7.027,5.694,11.153,5.892,18.9,0"
                    transform="translate(-0.5 4.459)" fill="none" stroke="#11807f"
                    stroke-linecap="round" stroke-linejoin="round" stroke-width="2" />
                <path id="Path_86874" data-name="Path 86874"
                    d="M18.168,15.321C26.63,12.942,27.649,10.1,29.836,5.18c.972,5.406,1.555,10.14,6.222,10.14,0,0,0-14.821-14.779-14.821S6.5,16.1,6.5,16.1c5.264-.678,8.368-2.731,11.668-6.24Z"
                    transform="translate(4.175 -0.5)" fill="#20c5ba" stroke="#20c5ba"
                    stroke-linecap="round" stroke-linejoin="round" stroke-width="2" />
            </g>
            <path id="Path_122924" data-name="Path 122924"
                d="M22.863,18.563s.069-2.064,1.851-2.064,1.941,2.064,1.941,2.064"
                transform="translate(-4.612 1.265)" fill="none" stroke="#11807f"
                stroke-linecap="round" stroke-linejoin="round" stroke-width="2" />
            <path id="Path_122925" data-name="Path 122925"
                d="M22.863,18.563s.069-2.064,1.851-2.064,1.941,2.064,1.941,2.064"
                transform="translate(6.418 1.265)" fill="none" stroke="#11807f"
                stroke-linecap="round" stroke-linejoin="round" stroke-width="2" />
        </g>
        <g id="Group_13110" data-name="Group 13110" transform="translate(11525.999 19227.922)">
            <g id="Group_12589-2" data-name="Group 12589" transform="translate(0 0)">
                <path id="Path_86873-2" data-name="Path 86873"
                    d="M32.815,26.287a13.965,13.965,0,0,0,4.171-6.206c4.036,0,4.305-7.851,1.076-7.851,0,0,.156-1.074.214-2.729M32.815,26.287A10.471,10.471,0,0,1,25.954,28.8c-6.673,0-10.135-5.816-11.032-8.724-4.036,0-4.305-7.851-1.076-7.851,0,0-.156-1.074-.214-2.729M32.815,26.287s.935,3.206,2.587,4.294m-18.9,0L2.243,38.333A4.015,4.015,0,0,0,.5,41.7a3.785,3.785,0,0,0,3.618,3.932H47.789A3.785,3.785,0,0,0,51.408,41.7a4.015,4.015,0,0,0-1.743-3.363L35.4,30.581m-18.9,0c1.652-1.088,2.587-4.294,2.587-4.294m-2.587,4.294c7.027,5.694,11.153,5.892,18.9,0"
                    transform="translate(-0.5 4.459)" fill="none" stroke="#11807f"
                    stroke-linecap="round" stroke-linejoin="round" stroke-width="2" />
                <path id="Path_86874-2" data-name="Path 86874"
                    d="M18.168,15.321C26.63,12.942,27.649,10.1,29.836,5.18c.972,5.406,1.555,10.14,6.222,10.14,0,0,0-14.821-14.779-14.821S6.5,16.1,6.5,16.1c5.264-.678,8.368-2.731,11.668-6.24Z"
                    transform="translate(4.175 -0.5)" fill="#20c5ba" stroke="#20c5ba"
                    stroke-linecap="round" stroke-linejoin="round" stroke-width="2" />
            </g>
            <path id="Path_122924-2" data-name="Path 122924"
                d="M22.863,18.563s.069-2.064,1.851-2.064,1.941,2.064,1.941,2.064"
                transform="translate(-4.612 1.265)" fill="none" stroke="#11807f"
                stroke-linecap="round" stroke-linejoin="round" stroke-width="2" />
            <path id="Path_122925-2" data-name="Path 122925"
                d="M22.863,18.563s.069-2.064,1.851-2.064,1.941,2.064,1.941,2.064"
                transform="translate(6.418 1.265)" fill="none" stroke="#11807f"
                stroke-linecap="round" stroke-linejoin="round" stroke-width="2" />
        </g>
        <g id="Group_13111" data-name="Group 13111" transform="translate(11540.735 19219.119)">
            <path id="Path_131011" data-name="Path 131011"
                d="M11724.771,19262.666l4.552-1.158s.694-1.084.31-1.467-2.546-3.162-2.546-3.162l1-2.242,6.79-13.654-2.315-8.18s-5.016-5.248-6.328-5.248-21.913,2.623-21.913,2.623l-1.852,7.406,3.781,8.332,3.781,6.791,1,3.551s-1.7,2.7-1.775,2.932-.77,3.857-.385,4.32,7.636,2.551,9.336,1.621A58.619,58.619,0,0,1,11724.771,19262.666Z"
                transform="translate(-11689.641 -19218.898)" fill="#fff" />
            <g id="Group_7243" data-name="Group 7243">
                <g id="Group_7204" data-name="Group 7204">
                    <path id="Path_86700" data-name="Path 86700"
                        d="M6.032,46.364l.894-27.71S5.971.5,25.081.5,43.235,18.655,43.235,18.655V45.409c-5.592-2.392-8.469-4.128-9.555-7.644,2.674-2.731,3.815-4.422,4.215-7.644,4.451-.368,4.63-1.665,3.6-7.565l-1.13-1.99-.4-2.774a88.872,88.872,0,0,1-7.248-6.781c-6.257,3.738-9.97,4.222-17.2.956a11.262,11.262,0,0,1-5.733,5.911l.891,2.688c-4.18-.936-3.931,12.422,1.8,9.555-.219,2.934,1.125,4.606,5.046,7.644l-2.9,2.867Z"
                        transform="translate(4.54 -0.5)" fill="#7ce8dd" stroke="#7ce8dd"
                        stroke-linecap="round" stroke-linejoin="round" stroke-width="2" />
                    <path id="Path_86701" data-name="Path 86701"
                        d="M38.105,29.035a16.251,16.251,0,0,0,4.853-7.222,4.482,4.482,0,0,0,.682-.068c4.028-.418,4.226-9.068.57-9.068,0,0,.182-1.25.249-3.176M38.105,29.035a12.186,12.186,0,0,1-7.984,2.93c-7.765,0-11.794-6.768-12.838-10.152-4.7,0-5.01-9.137-1.252-9.137,0,0-.182-1.25-.249-3.176M38.105,29.035s1.089,3.731,3.011,5m-21.99,0-16.6,9.021A4.673,4.673,0,0,0,.5,46.966a4.4,4.4,0,0,0,4.211,4.576h50.82a4.4,4.4,0,0,0,4.211-4.576,4.673,4.673,0,0,0-2.028-3.913l-16.6-9.021m-21.99,0c1.922-1.266,3.011-5,3.011-5m-3.011,5c8.177,6.626,12.979,6.857,21.99,0"
                        transform="translate(-0.5 7.699)" fill="#fff" stroke="#11807f"
                        stroke-linecap="round" stroke-linejoin="round" stroke-width="2" />
                    <path id="Path_86751" data-name="Path 86751"
                        d="M22.863,18.978s.083-2.479,2.222-2.479,2.33,2.479,2.33,2.479"
                        transform="translate(9.934 3.857)" fill="none" stroke="#11807f"
                        stroke-linecap="round" stroke-linejoin="round" stroke-width="2" />
                    <path id="Path_86752" data-name="Path 86752"
                        d="M22.863,18.978s.083-2.479,2.222-2.479,2.33,2.479,2.33,2.479"
                        transform="translate(-0.923 3.857)" fill="none" stroke="#11807f"
                        stroke-linecap="round" stroke-linejoin="round" stroke-width="2" />
                </g>
            </g>
        </g>
    </g>
</svg>
