<svg xmlns="http://www.w3.org/2000/svg" width="21.708" height="20.819"
viewBox="0 0 21.708 20.819">
<g id="Group_18" data-name="Group 18" transform="translate(0.563 0.534)">
    <path id="Path_26" data-name="Path 26"
        d="M-9157.838-4692.831a1.493,1.493,0,0,0-2.059-.045l-1.593,1.449s-1.976,1.585-.373,5.075a22.786,22.786,0,0,0,4.333,6.805c1.261,1.232,4.283,3.8,6.922,4.7s4.463,1.048,6.426-1.708l.447-.565a1.493,1.493,0,0,0-.21-2.071l-2.865-2.416a1.5,1.5,0,0,0-2.042.108l-1.188,1.238a1.317,1.317,0,0,1-1.609.234,13.032,13.032,0,0,1-5.256-5.479,1.32,1.32,0,0,1,.275-1.512c.377-.365.84-.812,1.257-1.212a1.493,1.493,0,0,0,.017-2.137Z"
        transform="translate(9162.489 4694.212)" fill="none" stroke="#fff"
        stroke-linecap="round" stroke-linejoin="round" stroke-width="0.93" />
    <g id="Group_17" data-name="Group 17" transform="translate(11.017)">
        <path id="Path_27" data-name="Path 27"
            d="M-9153.732-4690.994s5.188.65,5.692,5.737"
            transform="translate(9153.732 4694.799)" fill="none" stroke="#fff"
            stroke-linecap="round" stroke-linejoin="round" stroke-width="0.93" />
        <path id="Path_28" data-name="Path 28"
            d="M-9153.275-4694.018s7.853,1.278,9.023,9.094"
            transform="translate(9153.851 4694.018)" fill="none" stroke="#fff"
            stroke-linecap="round" stroke-linejoin="round" stroke-width="0.93" />
    </g>
</g>
</svg>