<svg xmlns="http://www.w3.org/2000/svg" width="19.202" height="15.403"
                            viewBox="0 0 19.202 15.403">
                            <g id="twitter_1_" data-name="twitter (1)" transform="translate(0.268 0.889)">
                                <g id="Group_2073" data-name="Group 2073" transform="translate(0 0)">
                                    <path id="Path_925" data-name="Path 925"
                                        d="M21.765,11.723v.468A10.07,10.07,0,0,1,11.538,22.261a10.257,10.257,0,0,1-5.5-1.582c.29.022.557.045.847.045a7.177,7.177,0,0,0,4.456-1.515,3.59,3.59,0,0,1-3.364-2.451,3.4,3.4,0,0,0,.668.067,3.319,3.319,0,0,0,.958-.134,3.561,3.561,0,0,1-2.83-3.476v-.045a3.446,3.446,0,0,0,1.6.446A3.494,3.494,0,0,1,7.261,8.893a10.293,10.293,0,0,0,7.4,3.7,3.28,3.28,0,0,1-.089-.8,3.561,3.561,0,0,1,3.587-3.543,3.651,3.651,0,0,1,2.629,1.114,6.689,6.689,0,0,0,2.273-.869,3.627,3.627,0,0,1-1.582,1.961A7.118,7.118,0,0,0,23.548,9.9,7.316,7.316,0,0,1,21.765,11.723Z"
                                        transform="translate(-6.035 -8.247)" fill="none" stroke="#9db0cb"
                                        stroke-width="1" />
                                </g>
                            </g>
                        </svg>